<svg width="1022" height="981" viewBox="0 0 1022 981" fill="none" xmlns="http://www.w3.org/2000/svg">
<g clip-path="url(#clip0)">
<path opacity="0.1" d="M829 130.023V654.777C829.004 671.854 826.281 688.763 820.987 704.541C815.693 720.318 807.932 734.653 798.147 746.728C788.361 758.803 776.744 768.38 763.958 774.913C751.172 781.445 737.468 784.805 723.63 784.8H298.37C274.56 784.84 251.446 774.893 232.82 756.592C225.111 749.014 218.292 740.152 212.56 730.259C199.834 708.222 192.997 681.836 193 654.777V130.023C193 126.543 193.11 123.1 193.33 119.694C193.749 113.043 194.589 106.442 195.84 99.9509C201.329 71.4887 214.434 46.1414 233.039 28.0048C251.643 9.86825 274.66 0.00189385 298.37 0H723.63C747.34 0.00189385 770.357 9.86825 788.961 28.0048C807.566 46.1414 820.671 71.4887 826.16 99.9509C827.411 106.442 828.25 113.043 828.67 119.694C828.89 123.1 829 126.543 829 130.023Z" fill="#8EA1A5"/>
<path opacity="0.1" d="M519 413.377H829V433.121H519V570.091H829V589.834H519V784.8H503V589.834H193V570.091H503V433.121H193V413.377H503V276.408H193V256.664H503V119.694H193.33C193.749 113.043 194.589 106.442 195.84 99.9509H503V0H519V99.9509H826.16C827.411 106.442 828.25 113.043 828.67 119.694H519V256.664H829V276.408H519V413.377Z" fill="#8EA1A5"/>
<path opacity="0.1" d="M511 981C793.218 981 1022 936.709 1022 882.073C1022 827.438 793.218 783.146 511 783.146C228.783 783.146 0 827.438 0 882.073C0 936.709 228.783 981 511 981Z" fill="#8EA1A5"/>
<path d="M902.7 846.51C916.673 846.51 928 843.82 928 840.501C928 837.182 916.673 834.492 902.7 834.492C888.727 834.492 877.4 837.182 877.4 840.501C877.4 843.82 888.727 846.51 902.7 846.51Z" fill="#8EA1A5"/>
<path d="M902.28 842.722C903.909 842.722 905.23 840.59 905.23 837.959C905.23 835.328 903.909 833.196 902.28 833.196C900.651 833.196 899.33 835.328 899.33 837.959C899.33 840.59 900.651 842.722 902.28 842.722Z" fill="#3F3D56"/>
<path d="M902.28 836.898C903.909 836.898 905.23 834.765 905.23 832.135C905.23 829.504 903.909 827.372 902.28 827.372C900.651 827.372 899.33 829.504 899.33 832.135C899.33 834.765 900.651 836.898 902.28 836.898Z" fill="#3F3D56"/>
<path d="M902.28 831.086C903.909 831.086 905.23 828.953 905.23 826.323C905.23 823.692 903.909 821.56 902.28 821.56C900.651 821.56 899.33 823.692 899.33 826.323C899.33 828.953 900.651 831.086 902.28 831.086Z" fill="#3F3D56"/>
<path d="M902.28 825.274C903.909 825.274 905.23 823.142 905.23 820.511C905.23 817.881 903.909 815.748 902.28 815.748C900.651 815.748 899.33 817.881 899.33 820.511C899.33 823.142 900.651 825.274 902.28 825.274Z" fill="#3F3D56"/>
<path d="M902.28 819.45C903.909 819.45 905.23 817.317 905.23 814.686C905.23 812.056 903.909 809.923 902.28 809.923C900.651 809.923 899.33 812.056 899.33 814.686C899.33 817.317 900.651 819.45 902.28 819.45Z" fill="#3F3D56"/>
<path d="M902.28 813.638C903.909 813.638 905.23 811.505 905.23 808.874C905.23 806.244 903.909 804.111 902.28 804.111C900.651 804.111 899.33 806.244 899.33 808.874C899.33 811.505 900.651 813.638 902.28 813.638Z" fill="#3F3D56"/>
<path d="M902.28 807.826C903.909 807.826 905.23 805.693 905.23 803.063C905.23 800.432 903.909 798.3 902.28 798.3C900.651 798.3 899.33 800.432 899.33 803.063C899.33 805.693 900.651 807.826 902.28 807.826Z" fill="#3F3D56"/>
<path d="M913.3 763.267C913.705 762.634 914.073 761.966 914.4 761.268L906.66 759.701L915.03 759.775C915.832 757.619 916.269 755.283 916.316 752.911C916.362 750.54 916.016 748.181 915.3 745.979L904.07 753.173L914.43 743.771C913.463 741.69 912.159 739.878 910.599 738.448C909.038 737.018 907.256 736 905.362 735.46C903.468 734.919 901.505 734.867 899.594 735.306C897.683 735.746 895.866 736.667 894.257 738.013C892.649 739.358 891.282 741.099 890.244 743.127C889.205 745.154 888.517 747.424 888.223 749.795C887.928 752.166 888.034 754.586 888.532 756.904C889.031 759.222 889.912 761.389 891.12 763.267C890.495 764.252 889.955 765.314 889.51 766.438L899.51 772.88L888.8 768.437C888.045 771.18 887.857 774.113 888.253 776.968C888.649 779.823 889.618 782.511 891.07 784.787C889.433 787.356 888.414 790.441 888.131 793.689C887.848 796.938 888.311 800.22 889.468 803.159C890.625 806.098 892.428 808.576 894.673 810.31C896.917 812.044 899.512 812.963 902.16 812.963C904.808 812.963 907.403 812.044 909.647 810.31C911.892 808.576 913.695 806.098 914.852 803.159C916.009 800.22 916.472 796.938 916.189 793.689C915.906 790.441 914.887 787.356 913.25 784.787C915.206 781.72 916.27 777.93 916.27 774.027C916.27 770.124 915.206 766.334 913.25 763.267H913.3Z" fill="#8EA1A5"/>
<path opacity="0.1" d="M888.1 774.028C888.09 777.929 889.147 781.72 891.1 784.788C889.463 787.356 888.444 790.441 888.161 793.69C887.878 796.938 888.341 800.22 889.498 803.159C890.655 806.098 892.458 808.577 894.703 810.31C896.947 812.044 899.542 812.964 902.19 812.964C904.838 812.964 907.433 812.044 909.677 810.31C911.922 808.577 913.725 806.098 914.882 803.159C916.039 800.22 916.502 796.938 916.219 793.69C915.936 790.441 914.917 787.356 913.28 784.788C915.19 781.826 888.1 772.078 888.1 774.028Z" fill="black"/>
<path d="M809.5 687.317H206.5V858.221H809.5V687.317Z" fill="#46455B"/>
<path d="M210.5 510.243L153.5 563.304L197.5 612.662L222.5 563.304L256.5 510.243H210.5Z" fill="#46455B"/>
<path d="M799.5 574.41L791.5 563.304L740.5 527.519L787.5 526.285L860.5 563.304L830.5 586.749L799.5 574.41Z" fill="#46455B"/>
<path d="M206.5 576.877L256.5 510.243V663.255L222.5 697.805L201.5 662.021L206.5 576.877Z" fill="#46455B"/>
<path d="M800.5 604.025L791.5 563.304L774.5 536.157L740.5 527.519V697.806H809.5L800.5 604.025Z" fill="#46455B"/>
<path d="M267.55 464.587H734.45C738.574 464.587 742.529 466.609 745.445 470.207C748.362 473.805 750 478.686 750 483.775V659.553H252V483.775C252 478.686 253.638 473.805 256.555 470.207C259.471 466.609 263.426 464.587 267.55 464.587V464.587Z" fill="#46455B"/>
<path d="M222.5 697.806L256.5 645.979H740.5L791.5 697.806H222.5Z" fill="#46455B"/>
<path opacity="0.05" d="M222.5 697.806L256.5 645.979H740.5L791.5 697.806H222.5Z" fill="black"/>
<path d="M222.5 563.304H153.5V858.221H222.5V563.304Z" fill="#46455B"/>
<path opacity="0.05" d="M222.5 563.304H153.5V858.221H222.5V563.304Z" fill="white"/>
<path d="M860.5 563.304H791.5V858.221H860.5V563.304Z" fill="#46455B"/>
<path opacity="0.05" d="M860.5 563.304H791.5V858.221H860.5V563.304Z" fill="white"/>
<path d="M440 508.392C484.183 508.392 520 450.107 520 378.209C520 306.311 484.183 248.026 440 248.026C395.817 248.026 360 306.311 360 378.209C360 450.107 395.817 508.392 440 508.392Z" fill="#2F2E41"/>
<path d="M475 322.064H386V475.075H475V322.064Z" fill="#2F2E41"/>
<path opacity="0.1" d="M475 322.064H386V475.075H475V322.064Z" fill="black"/>
<path d="M392.46 411.798C389.676 415.983 386.08 419.233 382.008 421.247C377.935 423.262 373.516 423.976 369.16 423.323C368.76 430.999 372.98 437.736 376.97 443.647L408.2 489.883C408.323 490.25 408.525 490.567 408.785 490.801C409.044 491.035 409.351 491.176 409.671 491.209C409.991 491.243 410.312 491.166 410.6 490.989C410.887 490.812 411.129 490.54 411.3 490.204L459 434.367C454.24 436.835 448.61 432.924 446 427.42C443.39 421.917 443.13 415.303 442.89 408.911C442.543 399.368 442.21 389.834 441.89 380.307C441.81 378.185 441.64 375.84 440.37 374.409C439.382 373.491 438.203 372.939 436.97 372.817C429.44 371.225 405.97 362.946 401.62 372.719C399.62 377.173 400.52 385.86 399.62 390.895C398.27 398.36 396.36 405.801 392.46 411.798Z" fill="#FBBEBE"/>
<path opacity="0.1" d="M392.46 411.798C389.676 415.983 386.08 419.233 382.008 421.247C377.935 423.262 373.516 423.976 369.16 423.323C368.76 430.999 372.98 437.736 376.97 443.647L408.2 489.883C408.323 490.25 408.525 490.567 408.785 490.801C409.044 491.035 409.351 491.176 409.671 491.209C409.991 491.243 410.312 491.166 410.6 490.989C410.887 490.812 411.129 490.54 411.3 490.204L459 434.367C454.24 436.835 448.61 432.924 446 427.42C443.39 421.917 443.13 415.303 442.89 408.911C442.543 399.368 442.21 389.834 441.89 380.307C441.81 378.185 441.64 375.84 440.37 374.409C439.382 373.491 438.203 372.939 436.97 372.817C429.44 371.225 405.97 362.946 401.62 372.719C399.62 377.173 400.52 385.86 399.62 390.895C398.27 398.36 396.36 405.801 392.46 411.798Z" fill="black"/>
<path d="M427 402.272C452.957 402.272 474 376.306 474 344.276C474 312.245 452.957 286.279 427 286.279C401.043 286.279 380 312.245 380 344.276C380 376.306 401.043 402.272 427 402.272Z" fill="#FBBEBE"/>
<path d="M410 461.058L402.46 431.726C399.46 419.979 395.2 406.665 385.7 402.876C379.7 400.507 373.23 402.679 366.98 402.025C354.82 400.729 342.98 388.797 331.61 394.263C317.61 400.976 317.73 427.506 305.3 437.921C305.3 462.711 311.79 485.737 315.3 510.132C318.81 534.528 319.82 560.861 310.66 582.936C306.78 592.29 301.23 600.434 297.09 609.614C290.303 624.753 287.527 642.134 289.15 659.318C342.23 660.141 395.317 660.338 448.41 659.911C447.92 651.421 444.85 643.055 444.35 634.565C444.05 632.003 444.214 629.39 444.83 626.915C446 623.213 448.98 621.004 451.53 618.598C454.946 615.349 457.84 611.339 460.06 606.776C463.6 599.508 465.28 591.13 466.92 582.887L486.8 482.936C489.17 471.028 491.47 458.035 487.35 446.879C482.83 434.626 471.99 428.259 461.98 422.891C455.98 419.646 449.08 416.364 442.98 419.35C437.98 421.818 434.84 427.728 431.68 433.084C425.566 443.631 418.266 453.051 410 461.058V461.058Z" fill="#F86D70"/>
<path opacity="0.1" d="M304.77 446.719C303.21 453.926 304.08 461.625 302.93 468.931C301 481.159 293.77 490.883 288.93 501.791C281.429 518.73 279.53 538.593 283.63 557.22C284.85 562.662 287.02 568.487 291.3 570.486C294.36 571.929 297.78 571.028 301.05 571.386C305.37 571.855 309.86 574.496 313.85 572.398C318.78 569.807 319.76 561.897 320.3 555.32C321.544 540.068 324.205 525.042 328.23 510.54C332.23 496.028 337.72 481.628 337.64 466.29C337.58 455.48 326.36 465.426 319.04 459.022C310.78 451.84 307.48 434.269 304.77 446.719Z" fill="black"/>
<path d="M302.77 445.485C301.21 452.691 302.08 460.391 300.93 467.696C299 479.925 291.77 489.649 286.93 500.557C279.429 517.496 277.53 537.358 281.63 555.986C282.85 561.428 285.02 567.252 289.3 569.251C292.36 570.695 295.78 569.794 299.05 570.152C303.37 570.621 307.86 573.262 311.85 571.164C316.78 568.573 317.76 560.663 318.3 554.086C319.544 538.834 322.205 523.808 326.23 509.306C330.23 494.794 335.72 480.394 335.64 465.056C335.58 454.246 331.73 442.301 324.41 435.897C316.15 428.715 305.48 433.034 302.77 445.485Z" fill="#F86D70"/>
<path d="M371.2 377.629C377.2 373.483 383.11 368.992 389.29 365.142C398.95 359.182 409.81 354.53 417.41 345.398C417.801 344.938 418.282 344.608 418.806 344.441C419.33 344.275 419.879 344.276 420.402 344.446C420.926 344.615 421.405 344.947 421.795 345.409C422.185 345.872 422.472 346.45 422.63 347.089C425.9 360.231 429.769 373.134 434.22 385.736C438.06 396.595 442.34 407.257 445.22 418.56C447.22 426.42 448.47 434.601 450.96 442.166C454.21 452.037 459.4 460.823 464.55 469.436C466.44 472.62 468.39 475.853 471.04 478.074C474.76 481.196 480.31 483.195 480.7 488.723C475.87 493.029 469.3 491.61 463.35 491.549C457.4 491.487 451.35 493.005 445.47 494.794C438.601 496.728 431.902 499.489 425.47 503.037C419.21 506.677 413.47 511.465 407.67 516.228L354.5 560.243C350.59 554.728 350.74 546.67 349.9 539.365C349.183 534.108 348.154 528.924 346.82 523.854L341.52 501.828C339 491.364 336.52 480.912 333.68 470.559C331.34 461.921 328.74 453.197 324.16 446.065C318.64 437.427 310.7 431.825 303.81 424.878C301.37 422.41 298.96 419.596 298.05 415.87C297.748 414.653 297.663 413.37 297.801 412.109C297.939 410.848 298.297 409.639 298.85 408.565C300.31 405.961 302.4 406.344 304.72 405.887C310.38 404.776 315.993 403.374 321.56 401.679C332.603 398.298 343.397 393.782 353.83 388.18C359.757 385.021 365.547 381.504 371.2 377.629Z" fill="#BBBDC8"/>
<path opacity="0.1" d="M373.38 386.761C378.65 383.158 383.77 379.209 389.16 375.877C397.6 370.67 407.06 366.622 413.69 358.688C414.03 358.282 414.45 357.992 414.907 357.844C415.365 357.696 415.846 357.695 416.304 357.843C416.762 357.99 417.181 358.28 417.522 358.686C417.863 359.091 418.114 359.597 418.25 360.157C421.101 371.621 424.476 382.876 428.36 393.868C431.71 403.345 435.44 412.649 437.93 422.509C439.65 429.357 440.76 436.452 442.93 443.103C445.76 451.741 450.3 459.379 454.78 466.894C456.309 469.779 458.223 472.324 460.44 474.421C463.7 477.149 468.54 478.888 468.87 483.726C464.66 487.427 458.93 486.193 453.74 486.193C448.467 486.324 443.229 487.278 438.15 489.032C432.162 490.715 426.324 493.125 420.72 496.226C415.313 499.584 410.122 503.445 405.19 507.775L358.8 546.115C355.39 541.302 355.53 534.232 354.8 527.889C354.178 523.289 353.283 518.752 352.12 514.315L347.49 495.103C345.29 485.971 343.09 476.852 340.65 467.82C338.65 460.28 336.35 452.679 332.35 446.448C327.53 438.933 320.61 434.034 314.59 427.938C312.47 425.803 310.36 423.335 309.59 420.09C309.326 419.03 309.252 417.911 309.373 416.812C309.494 415.712 309.807 414.658 310.29 413.723C311.56 411.44 313.39 411.773 315.41 411.378C320.35 410.416 325.247 409.182 330.1 407.676C339.735 404.735 349.151 400.797 358.25 395.904C363.417 393.157 368.46 390.109 373.38 386.761Z" fill="black"/>
<path d="M353.97 436.995C356.179 436.995 357.97 434.785 357.97 432.059C357.97 429.333 356.179 427.124 353.97 427.124C351.761 427.124 349.97 429.333 349.97 432.059C349.97 434.785 351.761 436.995 353.97 436.995Z" fill="#BBBDC8"/>
<path d="M396.62 412.625C398.829 412.625 400.62 410.415 400.62 407.689C400.62 404.963 398.829 402.753 396.62 402.753C394.411 402.753 392.62 404.963 392.62 407.689C392.62 410.415 394.411 412.625 396.62 412.625Z" fill="#BBBDC8"/>
<path d="M374.14 490.747C376.349 490.747 378.14 488.537 378.14 485.811C378.14 483.085 376.349 480.875 374.14 480.875C371.931 480.875 370.14 483.085 370.14 485.811C370.14 488.537 371.931 490.747 374.14 490.747Z" fill="#BBBDC8"/>
<path d="M416.79 466.376C418.999 466.376 420.79 464.166 420.79 461.44C420.79 458.714 418.999 456.504 416.79 456.504C414.581 456.504 412.79 458.714 412.79 461.44C412.79 464.166 414.581 466.376 416.79 466.376Z" fill="#BBBDC8"/>
<path d="M312.29 516.833C316.29 515.413 320.5 513.859 323.44 510.219C325.72 507.38 326.99 503.567 328.59 500.088C331.78 493.14 336.83 486.983 343.18 485.453C349.53 483.923 356.99 488.451 358.35 496.262C359.23 501.346 357.51 506.517 355.8 511.28C353.24 518.412 350.35 525.89 345.07 530.196C340.45 533.96 334.56 534.787 330.02 538.698C326.02 542.153 323.5 547.62 320.02 551.877C315.471 557.406 309.453 560.715 303.08 561.193C302.112 561.335 301.131 561.169 300.23 560.712C299.347 560.067 298.605 559.164 298.07 558.084C295.13 553.148 292.15 548.064 290.59 542.228C285.16 521.879 300.53 520.991 312.29 516.833Z" fill="#FBBEBE"/>
<path d="M418.83 519.548C417.48 509.602 417.3 498.755 412.32 490.759C408.15 484.084 401.22 480.703 394.4 480.135C392.4 479.962 390.05 480.209 388.89 482.233C388.23 483.661 387.966 485.316 388.14 486.946C388.562 499.584 392.383 511.689 399 521.349C401.49 524.953 404.38 528.235 406.12 532.455C407.64 536.095 408.2 540.254 409.61 543.956C411.45 548.78 414.61 552.593 417.03 557.036C420.461 563.399 422.24 570.901 422.13 578.543C424.77 573.225 424.45 566.574 424.7 560.343C425.03 551.569 430.01 546.769 426.78 539.612C423.55 532.455 420 528.247 418.83 519.548Z" fill="#FBBEBE"/>
<path opacity="0.1" d="M455.74 509.639C453.21 517.783 451.91 526.495 448.93 534.404C448.144 536.878 446.797 539.021 445.05 540.574C441.85 543.042 437.62 541.512 434.44 539.056C431.26 536.601 428.44 533.22 424.97 531.591C423.41 550.335 410.79 566.833 395.71 569.844C404.71 580.049 414.19 591.389 416.22 606.246C416.6 608.973 416.73 611.873 417.91 614.229C419.81 617.993 423.82 619.227 427.42 619.165C436.57 619.079 444.96 613.119 452.6 606.826C455.18 604.728 457.79 602.482 459.51 599.323C461.23 596.164 461.97 592.154 462.62 588.329C467.04 562.407 471.457 536.473 475.87 510.527C477.07 503.481 476.87 489.636 468.01 491.031C462 492.116 457.6 503.679 455.74 509.639Z" fill="black"/>
<path d="M457.74 509.639C455.21 517.783 453.91 526.495 450.93 534.404C450.144 536.878 448.797 539.021 447.05 540.574C443.85 543.042 439.62 541.512 436.44 539.056C433.26 536.601 430.44 533.22 426.97 531.591C425.41 550.335 412.79 566.833 397.71 569.844C406.71 580.049 416.19 591.389 418.22 606.246C418.6 608.973 418.73 611.873 419.91 614.229C421.81 617.993 425.82 619.227 429.42 619.165C438.57 619.079 446.96 613.119 454.6 606.826C457.18 604.728 459.79 602.482 461.51 599.323C463.23 596.164 463.97 592.154 464.62 588.329C469.04 562.407 473.457 536.473 477.87 510.527C479.07 503.481 478.87 489.636 470.01 491.031C464 492.116 459.6 503.679 457.74 509.639Z" fill="#F86D70"/>
<path d="M311.86 557.763C311.5 560.021 309.69 561.391 308.05 562.477C304.88 564.587 301.43 566.771 297.86 566.179C294.29 565.586 291.3 562.329 288.96 558.874C287.794 557.23 286.788 555.424 285.96 553.494C282.35 544.695 281.96 507.257 296.88 519.473C303.04 524.533 299.57 533.17 300.34 540.611C300.677 545.024 302.105 549.202 304.43 552.58C304.88 553.222 311.63 559.219 311.86 557.763Z" fill="#F86D70"/>
<path d="M439.5 330.702C464.077 330.702 484 319.1 484 304.789C484 290.477 464.077 278.875 439.5 278.875C414.923 278.875 395 290.477 395 304.789C395 319.1 414.923 330.702 439.5 330.702Z" fill="#2F2E41"/>
<path opacity="0.1" d="M441.5 322.064C417.42 322.064 397.83 310.958 397.04 297.015C395.763 299.303 395.066 302.01 395.04 304.789C395.04 319.103 414.96 330.702 439.54 330.702C464.12 330.702 484.04 319.103 484.04 304.789C484.04 304.492 484.04 304.209 484.04 303.925C478.29 314.438 461.43 322.064 441.5 322.064Z" fill="black"/>
<path d="M635 505.924C695.751 505.924 745 450.678 745 382.528C745 314.378 695.751 259.132 635 259.132C574.249 259.132 525 314.378 525 382.528C525 450.678 574.249 505.924 635 505.924Z" fill="#2F2E41"/>
<path opacity="0.1" d="M635 473.842C579.29 473.842 533.25 427.371 526 367.104C525.338 372.619 525.004 378.187 525 383.762C525 451.914 574.25 507.159 635 507.159C695.75 507.159 745 451.914 745 383.762C744.996 378.187 744.662 372.619 744 367.104C736.75 427.371 690.71 473.842 635 473.842Z" fill="black"/>
<path d="M633 475.076C662.271 475.076 686 435.575 686 386.847C686 338.12 662.271 298.619 633 298.619C603.729 298.619 580 338.12 580 386.847C580 435.575 603.729 475.076 633 475.076Z" fill="#2F2E41"/>
<path opacity="0.1" d="M633 475.076C662.271 475.076 686 435.575 686 386.847C686 338.12 662.271 298.619 633 298.619C603.729 298.619 580 338.12 580 386.847C580 435.575 603.729 475.076 633 475.076Z" fill="black"/>
<path d="M608.63 431.566C606.63 437.662 602.63 444.14 596.63 444.609C604.63 452.716 612.73 460.91 622.29 466.82C631.85 472.731 643.17 476.199 654.05 474.076C661.73 472.583 668.71 468.425 675.23 463.871C686.33 456.122 697.23 445.942 700.04 432.146C691.706 432.663 683.353 432.469 675.04 431.566C670.73 431.11 666.32 430.406 662.58 428.086C660.284 426.591 658.254 424.543 656.611 422.063C654.967 419.583 653.743 416.722 653.01 413.649C651.52 407.825 651.55 401.692 651.82 395.658C651.97 392.141 652.08 388.254 649.89 385.564C647.7 382.874 644.08 382.516 640.79 382.43C634.173 382.264 627.555 382.747 621 383.873C617.561 384.314 614.155 385.077 610.81 386.156C606.47 387.785 606.88 387.156 607.93 391.635C611.19 405.357 613.18 417.696 608.63 431.566Z" fill="#A0616A"/>
<path opacity="0.1" d="M608.63 431.566C606.63 437.662 602.63 444.14 596.63 444.609C604.63 452.716 612.73 460.91 622.29 466.82C631.85 472.731 643.17 476.199 654.05 474.076C661.73 472.583 668.71 468.425 675.23 463.871C686.33 456.122 697.23 445.942 700.04 432.146C691.706 432.663 683.353 432.469 675.04 431.566C670.73 431.11 666.32 430.406 662.58 428.086C660.284 426.591 658.254 424.543 656.611 422.063C654.967 419.583 653.743 416.722 653.01 413.649C651.52 407.825 651.55 401.692 651.82 395.658C651.97 392.141 652.08 388.254 649.89 385.564C647.7 382.874 644.08 382.516 640.79 382.43C634.173 382.264 627.555 382.747 621 383.873C617.561 384.314 614.155 385.077 610.81 386.156C606.47 387.785 606.88 387.156 607.93 391.635C611.19 405.357 613.18 417.696 608.63 431.566Z" fill="black"/>
<path d="M631.5 418.93C657.457 418.93 678.5 392.964 678.5 360.934C678.5 328.903 657.457 302.938 631.5 302.938C605.543 302.938 584.5 328.903 584.5 360.934C584.5 392.964 605.543 418.93 631.5 418.93Z" fill="#A0616A"/>
<path d="M615.3 436.675C612.23 432.134 609.07 427.494 604.98 424.409C598.28 419.337 589.98 419.017 582.13 418.856C573.62 418.671 564.37 418.77 557.64 425.199C554.64 428.098 552.34 432.072 550.15 435.971L521.64 486.564C520.53 488.538 519.36 490.771 519.64 493.153C519.959 494.867 520.65 496.441 521.64 497.706L553 546.028C554.79 548.78 556.64 551.68 557.24 555.135C557.84 558.59 557.1 562.218 556.14 565.574C552.35 578.889 545.14 591.487 545.8 605.518C546.27 614.674 550.15 623.089 554.9 630.197C565.8 646.399 581.49 656.937 597.9 662.687C614.31 668.437 631.54 669.696 648.61 669.832C680.79 670.091 714.61 665.76 741.19 643.363L720.3 619.079C716.17 614.266 711.84 609.084 710.41 602.297C709.41 597.731 709.89 592.919 710.34 588.242C711.18 579.691 712.02 571.078 714.26 562.934C720.49 540.241 736.5 524.088 747.18 504.086C748.52 501.618 749.82 498.78 749.67 495.781C749.55 493.252 748.41 490.994 747.3 488.871C742.42 479.53 737.36 470.238 733.82 460.021C731.18 452.42 729.39 444.337 726.12 437.119C722.85 429.9 717.66 423.409 711.12 421.892C702.7 419.942 694.49 426.445 685.94 426.889C679.68 427.222 673.15 424.323 667.3 427.074C660.36 430.344 657.3 439.994 653.41 447.83C650.54 453.666 641.98 469.634 635.27 465.71C631.62 463.563 628.27 455.838 625.65 452.05L615.3 436.675Z" fill="#F98A8D"/>
<path d="M652.74 475.902C651.156 474.8 649.316 474.391 647.52 474.742C646.633 474.952 645.827 475.519 645.228 476.354C644.629 477.189 644.271 478.245 644.21 479.357L641.32 479.147C640.986 479.104 640.649 479.124 640.32 479.209C639.902 479.32 639.538 479.632 639.306 480.075C639.074 480.518 638.995 481.057 639.085 481.572C639.175 482.088 639.428 482.538 639.787 482.823C640.146 483.109 640.582 483.207 641 483.096C639.582 483.79 638.317 484.89 637.31 486.304C636.555 487.704 636.279 489.415 636.541 491.065C636.804 492.715 637.583 494.17 638.71 495.115C639.893 495.954 641.283 496.231 642.62 495.895C643.957 495.559 645.148 494.632 645.97 493.289C645.801 494.026 645.849 494.813 646.105 495.511C646.361 496.209 646.809 496.772 647.37 497.102C652.79 500.717 655.55 495.806 656.29 490.117C657.13 483.873 658.21 479.234 652.74 475.902Z" fill="#FFE9B3"/>
<path opacity="0.15" d="M652.74 475.902C651.156 474.8 649.316 474.391 647.52 474.742C646.633 474.952 645.827 475.519 645.228 476.354C644.629 477.189 644.271 478.245 644.21 479.357L641.32 479.147C640.986 479.104 640.649 479.124 640.32 479.209C639.902 479.32 639.538 479.632 639.306 480.075C639.074 480.518 638.995 481.057 639.085 481.572C639.175 482.088 639.428 482.538 639.787 482.823C640.146 483.109 640.582 483.207 641 483.096C639.582 483.79 638.317 484.89 637.31 486.304C636.555 487.704 636.279 489.415 636.541 491.065C636.804 492.715 637.583 494.17 638.71 495.115C639.893 495.954 641.283 496.231 642.62 495.895C643.957 495.559 645.148 494.632 645.97 493.289C645.801 494.026 645.849 494.813 646.105 495.511C646.361 496.209 646.809 496.772 647.37 497.102C652.79 500.717 655.55 495.806 656.29 490.117C657.13 483.873 658.21 479.234 652.74 475.902Z" fill="black"/>
<path d="M667.5 471.707C665.916 470.603 664.075 470.198 662.28 470.559C661.394 470.765 660.588 471.329 659.991 472.163C659.393 472.996 659.038 474.051 658.98 475.162L656.09 474.952C655.756 474.91 655.419 474.931 655.09 475.014C654.699 475.165 654.368 475.49 654.159 475.925C653.95 476.36 653.879 476.875 653.96 477.371C654.066 477.86 654.317 478.282 654.664 478.554C655.01 478.825 655.426 478.927 655.83 478.839C654.413 479.536 653.149 480.635 652.14 482.047C651.388 483.448 651.113 485.158 651.375 486.807C651.637 488.456 652.415 489.911 653.54 490.858C654.723 491.699 656.114 491.979 657.453 491.645C658.791 491.311 659.985 490.386 660.81 489.044C660.641 489.778 660.688 490.562 660.942 491.258C661.197 491.953 661.642 492.515 662.2 492.844C667.63 496.472 670.38 491.611 671.13 485.873C671.9 479.678 673 475.038 667.5 471.707Z" fill="#FFE9B3"/>
<path d="M679.54 473.829C677.959 472.728 676.122 472.324 674.33 472.682C673.442 472.885 672.634 473.448 672.035 474.282C671.435 475.116 671.078 476.172 671.02 477.284L668.13 477.074C667.796 477.031 667.459 477.051 667.13 477.136C666.739 477.288 666.408 477.612 666.199 478.047C665.99 478.482 665.919 478.997 666 479.493C666.106 479.982 666.357 480.404 666.704 480.676C667.05 480.948 667.466 481.05 667.87 480.961C666.45 481.652 665.185 482.752 664.18 484.17C663.425 485.57 663.149 487.28 663.411 488.93C663.674 490.58 664.453 492.036 665.58 492.98C666.761 493.823 668.151 494.104 669.488 493.77C670.826 493.436 672.018 492.51 672.84 491.166C672.672 491.902 672.72 492.687 672.976 493.383C673.232 494.079 673.68 494.64 674.24 494.967C679.66 498.595 682.41 493.671 683.16 487.995C683.94 481.862 685 477.161 679.54 473.829Z" fill="#FFE9B3"/>
<path opacity="0.15" d="M679.54 473.829C677.959 472.728 676.122 472.324 674.33 472.682C673.442 472.885 672.634 473.448 672.035 474.282C671.435 475.116 671.078 476.172 671.02 477.284L668.13 477.074C667.796 477.031 667.459 477.051 667.13 477.136C666.739 477.288 666.408 477.612 666.199 478.047C665.99 478.482 665.919 478.997 666 479.493C666.106 479.982 666.357 480.404 666.704 480.676C667.05 480.948 667.466 481.05 667.87 480.961C666.45 481.652 665.185 482.752 664.18 484.17C663.425 485.57 663.149 487.28 663.411 488.93C663.674 490.58 664.453 492.036 665.58 492.98C666.761 493.823 668.151 494.104 669.488 493.77C670.826 493.436 672.018 492.51 672.84 491.166C672.672 491.902 672.72 492.687 672.976 493.383C673.232 494.079 673.68 494.64 674.24 494.967C679.66 498.595 682.41 493.671 683.16 487.995C683.94 481.862 685 477.161 679.54 473.829Z" fill="black"/>
<path d="M709 482.479V615.031C708.997 615.875 708.725 616.683 708.241 617.279C707.758 617.875 707.103 618.212 706.42 618.215H622.58C621.897 618.212 621.242 617.875 620.759 617.279C620.275 616.683 620.003 615.875 620 615.031V482.479C619.999 481.95 620.105 481.43 620.309 480.964C620.512 480.498 620.806 480.103 621.164 479.812C621.522 479.522 621.934 479.347 622.361 479.302C622.788 479.257 623.217 479.344 623.61 479.555C625.743 480.69 627.873 481.739 630 482.701C633 484.059 636 485.239 639 486.243C642 487.242 645 488.069 648 488.711C651 489.352 654 489.846 657 490.142C660 490.438 663 490.562 666 490.488C669 490.414 672 490.204 675 489.797C678 489.389 681 488.785 684 488.007C687 487.23 690 486.317 693 485.194C695.33 484.318 697.67 483.343 700 482.257C701.8 481.43 703.59 480.53 705.39 479.567C705.782 479.356 706.211 479.269 706.637 479.314C707.063 479.358 707.474 479.532 707.832 479.821C708.19 480.11 708.484 480.504 708.688 480.968C708.892 481.432 708.999 481.951 709 482.479V482.479Z" fill="#BBBDC8"/>
<path d="M639 486.243V618.277H630V482.701C633 484.059 636 485.239 639 486.243Z" fill="white"/>
<path d="M657 490.13V618.215H648V488.649C651 489.365 654 489.834 657 490.13Z" fill="white"/>
<path d="M675 489.784V618.215H666V490.5C669 490.434 672 490.196 675 489.784Z" fill="white"/>
<path d="M693 485.182V618.215H684V488.032C687 487.259 690 486.309 693 485.182Z" fill="white"/>
<path opacity="0.1" d="M709 482.479V615.031C708.997 615.875 708.725 616.683 708.241 617.279C707.758 617.875 707.103 618.212 706.42 618.215H700V482.245C701.8 481.418 703.59 480.517 705.39 479.555C705.783 479.344 706.212 479.257 706.639 479.302C707.066 479.347 707.478 479.522 707.836 479.812C708.194 480.103 708.488 480.498 708.691 480.964C708.895 481.43 709.001 481.95 709 482.479Z" fill="black"/>
<path d="M643.41 469.584C641.829 468.484 639.992 468.079 638.2 468.437C637.312 468.64 636.504 469.204 635.905 470.037C635.305 470.871 634.948 471.927 634.89 473.04L632 472.83C631.666 472.786 631.329 472.807 631 472.892C630.609 473.043 630.278 473.368 630.069 473.803C629.86 474.238 629.789 474.753 629.87 475.248C629.976 475.737 630.227 476.16 630.574 476.431C630.92 476.703 631.336 476.805 631.74 476.717C630.32 477.407 629.055 478.508 628.05 479.925C627.295 481.325 627.019 483.036 627.281 484.686C627.544 486.336 628.323 487.791 629.45 488.736C630.632 489.576 632.021 489.855 633.358 489.521C634.694 489.187 635.886 488.263 636.71 486.922C636.542 487.657 636.59 488.442 636.846 489.138C637.102 489.834 637.55 490.395 638.11 490.722C643.53 494.338 646.28 489.427 647.03 483.75C647.81 477.556 648.89 472.916 643.41 469.584Z" fill="#FFE9B3"/>
<path d="M658.41 448.607C656.829 447.506 654.992 447.101 653.2 447.459C652.312 447.663 651.504 448.226 650.905 449.06C650.305 449.893 649.948 450.95 649.89 452.062L647 451.852C646.666 451.808 646.329 451.829 646 451.914C645.609 452.066 645.278 452.39 645.069 452.825C644.86 453.26 644.789 453.775 644.87 454.271C644.976 454.76 645.227 455.182 645.574 455.454C645.92 455.726 646.336 455.828 646.74 455.739C645.32 456.43 644.055 457.53 643.05 458.948C642.295 460.347 642.019 462.058 642.281 463.708C642.544 465.358 643.323 466.813 644.45 467.758C645.632 468.598 647.021 468.878 648.358 468.544C649.694 468.21 650.886 467.286 651.71 465.944C651.542 466.68 651.59 467.465 651.846 468.161C652.102 468.856 652.55 469.418 653.11 469.745C658.53 473.36 661.28 468.449 662.03 462.773C662.81 456.578 663.89 451.939 658.41 448.607Z" fill="#FFE9B3"/>
<path d="M668.6 477.099C669.786 475.397 670.467 473.247 670.53 471.004C670.548 469.886 670.263 468.793 669.719 467.898C669.175 467.004 668.405 466.359 667.53 466.068L668.26 462.613C668.366 462.215 668.417 461.797 668.41 461.379C668.394 460.858 668.211 460.367 667.902 460.013C667.592 459.659 667.182 459.471 666.76 459.491C666.338 459.51 665.94 459.736 665.653 460.118C665.366 460.5 665.214 461.006 665.23 461.527C664.957 459.676 664.329 457.933 663.4 456.443C662.431 455.261 661.123 454.599 659.76 454.599C658.397 454.599 657.09 455.261 656.12 456.443C655.217 457.705 654.719 459.331 654.719 461.015C654.719 462.698 655.217 464.324 656.12 465.586C655.566 465.241 654.931 465.148 654.328 465.324C653.724 465.5 653.19 465.934 652.82 466.549C648.89 472.398 652.26 476.692 656.63 478.703C661.41 480.875 664.89 483.096 668.6 477.099Z" fill="#FFE9B3"/>
<path d="M681.6 477.099C682.786 475.397 683.467 473.247 683.53 471.004C683.548 469.886 683.263 468.793 682.719 467.898C682.175 467.004 681.405 466.359 680.53 466.068L681.26 462.613C681.366 462.215 681.417 461.797 681.41 461.379C681.394 460.858 681.211 460.367 680.902 460.013C680.592 459.659 680.182 459.471 679.76 459.491C679.338 459.51 678.94 459.736 678.653 460.118C678.366 460.5 678.214 461.006 678.23 461.527C677.957 459.676 677.329 457.933 676.4 456.443C675.431 455.261 674.123 454.599 672.76 454.599C671.397 454.599 670.09 455.261 669.12 456.443C668.217 457.705 667.719 459.331 667.719 461.015C667.719 462.698 668.217 464.324 669.12 465.586C668.566 465.241 667.931 465.148 667.328 465.324C666.724 465.5 666.19 465.934 665.82 466.549C661.89 472.398 665.26 476.692 669.63 478.703C674.41 480.875 677.89 483.096 681.6 477.099Z" fill="#FFE9B3"/>
<path d="M689.74 487.65C690.656 485.71 691.009 483.442 690.74 481.221C690.583 480.123 690.134 479.12 689.464 478.372C688.794 477.623 687.941 477.171 687.04 477.087L687.25 473.533C687.301 473.124 687.301 472.708 687.25 472.299C687.156 471.792 686.902 471.352 686.545 471.075C686.188 470.799 685.756 470.708 685.345 470.825C684.934 470.941 684.577 471.254 684.353 471.695C684.129 472.135 684.056 472.668 684.15 473.175C683.6 471.419 682.723 469.846 681.59 468.585C680.463 467.64 679.079 467.281 677.739 467.585C676.399 467.89 675.21 468.835 674.43 470.214C673.736 471.664 673.495 473.378 673.753 475.032C674.011 476.687 674.749 478.168 675.83 479.197C675.235 478.983 674.597 479.035 674.03 479.344C673.463 479.653 673.002 480.2 672.73 480.888C669.73 487.539 673.73 490.994 678.29 491.993C683.24 492.968 687 494.363 689.74 487.65Z" fill="#FFE9B3"/>
<path d="M649.74 467.906C650.656 465.966 651.009 463.698 650.74 461.477C650.583 460.379 650.134 459.377 649.464 458.628C648.794 457.88 647.941 457.428 647.04 457.343L647.25 453.79C647.301 453.381 647.301 452.965 647.25 452.556C647.156 452.048 646.902 451.608 646.545 451.331C646.188 451.055 645.756 450.965 645.345 451.081C644.934 451.197 644.577 451.51 644.353 451.951C644.129 452.392 644.056 452.924 644.15 453.432C643.6 451.675 642.723 450.103 641.59 448.841C640.463 447.896 639.079 447.537 637.739 447.842C636.399 448.147 635.21 449.091 634.43 450.47C633.736 451.921 633.495 453.634 633.753 455.289C634.011 456.943 634.749 458.424 635.83 459.453C635.235 459.239 634.597 459.291 634.03 459.6C633.463 459.91 633.002 460.456 632.73 461.144C629.73 467.795 633.73 471.25 638.29 472.25C643.24 473.224 647 474.619 649.74 467.906Z" fill="#FFE9B3"/>
<path d="M653.74 461.095C652.156 459.993 650.316 459.584 648.52 459.935C647.633 460.145 646.827 460.712 646.228 461.547C645.629 462.382 645.271 463.438 645.21 464.55L642.32 464.34C641.986 464.297 641.649 464.317 641.32 464.402C640.902 464.513 640.538 464.825 640.306 465.268C640.074 465.711 639.995 466.25 640.085 466.765C640.175 467.28 640.428 467.731 640.787 468.016C641.146 468.302 641.582 468.4 642 468.289C640.582 468.983 639.317 470.083 638.31 471.497C637.555 472.897 637.279 474.608 637.541 476.258C637.804 477.908 638.583 479.363 639.71 480.308C640.893 481.147 642.283 481.424 643.62 481.088C644.957 480.752 646.148 479.825 646.97 478.481C646.801 479.219 646.849 480.006 647.105 480.704C647.361 481.402 647.809 481.965 648.37 482.294C653.79 485.91 656.55 480.999 657.29 475.31C658.13 469.066 659.21 464.427 653.74 461.095Z" fill="#FFE9B3"/>
<path opacity="0.15" d="M653.74 461.095C652.156 459.993 650.316 459.584 648.52 459.935C647.633 460.145 646.827 460.712 646.228 461.547C645.629 462.382 645.271 463.438 645.21 464.55L642.32 464.34C641.986 464.297 641.649 464.317 641.32 464.402C640.902 464.513 640.538 464.825 640.306 465.268C640.074 465.711 639.995 466.25 640.085 466.765C640.175 467.28 640.428 467.731 640.787 468.016C641.146 468.302 641.582 468.4 642 468.289C640.582 468.983 639.317 470.083 638.31 471.497C637.555 472.897 637.279 474.608 637.541 476.258C637.804 477.908 638.583 479.363 639.71 480.308C640.893 481.147 642.283 481.424 643.62 481.088C644.957 480.752 646.148 479.825 646.97 478.481C646.801 479.219 646.849 480.006 647.105 480.704C647.361 481.402 647.809 481.965 648.37 482.294C653.79 485.91 656.55 480.999 657.29 475.31C658.13 469.066 659.21 464.427 653.74 461.095Z" fill="black"/>
<path d="M696.75 465.339C695.166 464.236 693.325 463.831 691.53 464.192C690.643 464.397 689.836 464.961 689.237 465.794C688.638 466.628 688.28 467.683 688.22 468.795L685.34 468.585C685.006 468.542 684.669 468.563 684.34 468.647C683.949 468.798 683.618 469.123 683.409 469.558C683.2 469.993 683.129 470.508 683.21 471.003C683.316 471.492 683.567 471.915 683.914 472.186C684.26 472.458 684.676 472.56 685.08 472.472C683.663 473.169 682.399 474.268 681.39 475.68C680.638 477.081 680.363 478.791 680.625 480.44C680.887 482.089 681.665 483.544 682.79 484.491C683.972 485.331 685.361 485.61 686.698 485.276C688.034 484.942 689.226 484.018 690.05 482.677C689.882 483.412 689.93 484.197 690.186 484.893C690.443 485.589 690.89 486.15 691.45 486.477C696.87 490.093 699.63 485.182 700.37 479.493C701.14 473.311 702.22 468.671 696.75 465.339Z" fill="#FFE9B3"/>
<path opacity="0.15" d="M696.75 465.339C695.166 464.236 693.325 463.831 691.53 464.192C690.643 464.397 689.836 464.961 689.237 465.794C688.638 466.628 688.28 467.683 688.22 468.795L685.34 468.585C685.006 468.542 684.669 468.563 684.34 468.647C683.949 468.798 683.618 469.123 683.409 469.558C683.2 469.993 683.129 470.508 683.21 471.003C683.316 471.492 683.567 471.915 683.914 472.186C684.26 472.458 684.676 472.56 685.08 472.472C683.663 473.169 682.399 474.268 681.39 475.68C680.638 477.081 680.363 478.791 680.625 480.44C680.887 482.089 681.665 483.544 682.79 484.491C683.972 485.331 685.361 485.61 686.698 485.276C688.034 484.942 689.226 484.018 690.05 482.677C689.882 483.412 689.93 484.197 690.186 484.893C690.443 485.589 690.89 486.15 691.45 486.477C696.87 490.093 699.63 485.182 700.37 479.493C701.14 473.311 702.22 468.671 696.75 465.339Z" fill="black"/>
<path d="M670.75 444.362C669.166 443.259 667.325 442.854 665.53 443.215C664.643 443.42 663.836 443.984 663.237 444.817C662.638 445.651 662.28 446.706 662.22 447.818L659.34 447.608C659.006 447.565 658.669 447.586 658.34 447.669C657.949 447.821 657.618 448.146 657.409 448.581C657.2 449.016 657.129 449.531 657.21 450.026C657.316 450.515 657.567 450.937 657.914 451.209C658.26 451.481 658.676 451.583 659.08 451.495C657.663 452.192 656.399 453.291 655.39 454.703C654.638 456.104 654.363 457.814 654.625 459.463C654.887 461.111 655.665 462.567 656.79 463.514C657.972 464.354 659.361 464.633 660.698 464.299C662.034 463.965 663.226 463.041 664.05 461.7C663.882 462.435 663.93 463.22 664.186 463.916C664.443 464.612 664.89 465.173 665.45 465.5C670.87 469.116 673.63 464.205 674.37 458.516C675.14 452.334 676.22 447.694 670.75 444.362Z" fill="#FFE9B3"/>
<path opacity="0.15" d="M670.75 444.362C669.166 443.259 667.325 442.854 665.53 443.215C664.643 443.42 663.836 443.984 663.237 444.817C662.638 445.651 662.28 446.706 662.22 447.818L659.34 447.608C659.006 447.565 658.669 447.586 658.34 447.669C657.949 447.821 657.618 448.146 657.409 448.581C657.2 449.016 657.129 449.531 657.21 450.026C657.316 450.515 657.567 450.937 657.914 451.209C658.26 451.481 658.676 451.583 659.08 451.495C657.663 452.192 656.399 453.291 655.39 454.703C654.638 456.104 654.363 457.814 654.625 459.463C654.887 461.111 655.665 462.567 656.79 463.514C657.972 464.354 659.361 464.633 660.698 464.299C662.034 463.965 663.226 463.041 664.05 461.7C663.882 462.435 663.93 463.22 664.186 463.916C664.443 464.612 664.89 465.173 665.45 465.5C670.87 469.116 673.63 464.205 674.37 458.516C675.14 452.334 676.22 447.694 670.75 444.362Z" fill="black"/>
<path d="M650.75 436.959C649.166 435.855 647.325 435.45 645.53 435.811C644.643 436.017 643.836 436.58 643.237 437.414C642.638 438.247 642.28 439.302 642.22 440.414L639.34 440.204C639.006 440.161 638.669 440.182 638.34 440.266C637.949 440.417 637.618 440.742 637.409 441.177C637.2 441.612 637.129 442.127 637.21 442.623C637.316 443.112 637.567 443.534 637.914 443.806C638.26 444.077 638.676 444.179 639.08 444.091C637.663 444.788 636.399 445.887 635.39 447.299C634.638 448.7 634.363 450.41 634.625 452.059C634.887 453.708 635.665 455.163 636.79 456.11C637.972 456.95 639.361 457.229 640.698 456.896C642.034 456.562 643.226 455.637 644.05 454.296C643.882 455.031 643.93 455.817 644.186 456.512C644.443 457.208 644.89 457.769 645.45 458.096C650.87 461.712 653.63 456.801 654.37 451.112C655.14 444.93 656.22 440.29 650.75 436.959Z" fill="#FFE9B3"/>
<path opacity="0.15" d="M650.75 436.959C649.166 435.855 647.325 435.45 645.53 435.811C644.643 436.017 643.836 436.58 643.237 437.414C642.638 438.247 642.28 439.302 642.22 440.414L639.34 440.204C639.006 440.161 638.669 440.182 638.34 440.266C637.949 440.417 637.618 440.742 637.409 441.177C637.2 441.612 637.129 442.127 637.21 442.623C637.316 443.112 637.567 443.534 637.914 443.806C638.26 444.077 638.676 444.179 639.08 444.091C637.663 444.788 636.399 445.887 635.39 447.299C634.638 448.7 634.363 450.41 634.625 452.059C634.887 453.708 635.665 455.163 636.79 456.11C637.972 456.95 639.361 457.229 640.698 456.896C642.034 456.562 643.226 455.637 644.05 454.296C643.882 455.031 643.93 455.817 644.186 456.512C644.443 457.208 644.89 457.769 645.45 458.096C650.87 461.712 653.63 456.801 654.37 451.112C655.14 444.93 656.22 440.29 650.75 436.959Z" fill="black"/>
<path d="M672.75 432.023C671.166 430.919 669.325 430.514 667.53 430.875C666.643 431.081 665.836 431.644 665.237 432.478C664.638 433.311 664.28 434.366 664.22 435.478L661.34 435.268C661.006 435.225 660.669 435.246 660.34 435.33C659.949 435.481 659.618 435.806 659.409 436.241C659.2 436.676 659.129 437.191 659.21 437.686C659.316 438.176 659.567 438.598 659.914 438.87C660.26 439.141 660.676 439.243 661.08 439.155C659.663 439.852 658.399 440.951 657.39 442.363C656.638 443.764 656.363 445.474 656.625 447.123C656.887 448.772 657.665 450.227 658.79 451.174C659.972 452.014 661.361 452.293 662.698 451.959C664.034 451.626 665.226 450.701 666.05 449.36C665.882 450.095 665.93 450.881 666.186 451.576C666.443 452.272 666.89 452.833 667.45 453.16C672.87 456.776 675.63 451.865 676.37 446.176C677.14 439.994 678.22 435.354 672.75 432.023Z" fill="#FFE9B3"/>
<path opacity="0.15" d="M672.75 432.023C671.166 430.919 669.325 430.514 667.53 430.875C666.643 431.081 665.836 431.644 665.237 432.478C664.638 433.311 664.28 434.366 664.22 435.478L661.34 435.268C661.006 435.225 660.669 435.246 660.34 435.33C659.949 435.481 659.618 435.806 659.409 436.241C659.2 436.676 659.129 437.191 659.21 437.686C659.316 438.176 659.567 438.598 659.914 438.87C660.26 439.141 660.676 439.243 661.08 439.155C659.663 439.852 658.399 440.951 657.39 442.363C656.638 443.764 656.363 445.474 656.625 447.123C656.887 448.772 657.665 450.227 658.79 451.174C659.972 452.014 661.361 452.293 662.698 451.959C664.034 451.626 665.226 450.701 666.05 449.36C665.882 450.095 665.93 450.881 666.186 451.576C666.443 452.272 666.89 452.833 667.45 453.16C672.87 456.776 675.63 451.865 676.37 446.176C677.14 439.994 678.22 435.354 672.75 432.023Z" fill="black"/>
<path d="M680.75 439.426C679.166 438.323 677.325 437.918 675.53 438.279C674.643 438.484 673.836 439.048 673.237 439.881C672.638 440.715 672.28 441.77 672.22 442.881L669.34 442.672C669.006 442.629 668.669 442.65 668.34 442.733C667.949 442.885 667.618 443.209 667.409 443.645C667.2 444.08 667.129 444.595 667.21 445.09C667.316 445.579 667.567 446.001 667.914 446.273C668.26 446.545 668.676 446.647 669.08 446.559C667.663 447.256 666.399 448.355 665.39 449.767C664.638 451.168 664.363 452.878 664.625 454.527C664.887 456.175 665.665 457.631 666.79 458.577C667.972 459.418 669.361 459.697 670.698 459.363C672.034 459.029 673.226 458.105 674.05 456.764C673.882 457.499 673.93 458.284 674.186 458.98C674.443 459.676 674.89 460.237 675.45 460.564C680.87 464.18 683.63 459.268 684.37 453.58C685.14 447.398 686.22 442.758 680.75 439.426Z" fill="#FFE9B3"/>
<path opacity="0.15" d="M680.75 439.426C679.166 438.323 677.325 437.918 675.53 438.279C674.643 438.484 673.836 439.048 673.237 439.881C672.638 440.715 672.28 441.77 672.22 442.881L669.34 442.672C669.006 442.629 668.669 442.65 668.34 442.733C667.949 442.885 667.618 443.209 667.409 443.645C667.2 444.08 667.129 444.595 667.21 445.09C667.316 445.579 667.567 446.001 667.914 446.273C668.26 446.545 668.676 446.647 669.08 446.559C667.663 447.256 666.399 448.355 665.39 449.767C664.638 451.168 664.363 452.878 664.625 454.527C664.887 456.175 665.665 457.631 666.79 458.577C667.972 459.418 669.361 459.697 670.698 459.363C672.034 459.029 673.226 458.105 674.05 456.764C673.882 457.499 673.93 458.284 674.186 458.98C674.443 459.676 674.89 460.237 675.45 460.564C680.87 464.18 683.63 459.268 684.37 453.58C685.14 447.398 686.22 442.758 680.75 439.426Z" fill="black"/>
<path d="M631.75 465.339C630.166 464.236 628.325 463.831 626.53 464.192C625.643 464.397 624.836 464.961 624.237 465.794C623.638 466.628 623.28 467.683 623.22 468.795L620.34 468.585C620.006 468.542 619.669 468.563 619.34 468.647C618.949 468.798 618.618 469.123 618.409 469.558C618.2 469.993 618.129 470.508 618.21 471.003C618.316 471.492 618.567 471.915 618.914 472.186C619.26 472.458 619.676 472.56 620.08 472.472C618.663 473.169 617.399 474.268 616.39 475.68C615.638 477.081 615.363 478.791 615.625 480.44C615.887 482.089 616.665 483.544 617.79 484.491C618.972 485.331 620.361 485.61 621.698 485.276C623.034 484.942 624.226 484.018 625.05 482.677C624.882 483.412 624.93 484.197 625.186 484.893C625.443 485.589 625.89 486.15 626.45 486.477C631.87 490.093 634.63 485.182 635.37 479.493C636.14 473.311 637.22 468.671 631.75 465.339Z" fill="#FFE9B3"/>
<path opacity="0.15" d="M631.75 465.339C630.166 464.236 628.325 463.831 626.53 464.192C625.643 464.397 624.836 464.961 624.237 465.794C623.638 466.628 623.28 467.683 623.22 468.795L620.34 468.585C620.006 468.542 619.669 468.563 619.34 468.647C618.949 468.798 618.618 469.123 618.409 469.558C618.2 469.993 618.129 470.508 618.21 471.003C618.316 471.492 618.567 471.915 618.914 472.186C619.26 472.458 619.676 472.56 620.08 472.472C618.663 473.169 617.399 474.268 616.39 475.68C615.638 477.081 615.363 478.791 615.625 480.44C615.887 482.089 616.665 483.544 617.79 484.491C618.972 485.331 620.361 485.61 621.698 485.276C623.034 484.942 624.226 484.018 625.05 482.677C624.882 483.412 624.93 484.197 625.186 484.893C625.443 485.589 625.89 486.15 626.45 486.477C631.87 490.093 634.63 485.182 635.37 479.493C636.14 473.311 637.22 468.671 631.75 465.339Z" fill="black"/>
<path d="M689.75 448.064C688.166 446.96 686.325 446.556 684.53 446.917C683.643 447.122 682.836 447.686 682.237 448.519C681.638 449.352 681.28 450.408 681.22 451.519L678.34 451.309C678.006 451.267 677.669 451.288 677.34 451.371C676.949 451.523 676.618 451.847 676.409 452.282C676.2 452.717 676.129 453.232 676.21 453.728C676.316 454.217 676.567 454.639 676.914 454.911C677.26 455.183 677.676 455.285 678.08 455.196C676.663 455.893 675.399 456.992 674.39 458.405C673.638 459.806 673.363 461.515 673.625 463.164C673.887 464.813 674.665 466.268 675.79 467.215C676.972 468.056 678.361 468.335 679.698 468.001C681.034 467.667 682.226 466.743 683.05 465.401C682.882 466.137 682.93 466.922 683.186 467.618C683.443 468.314 683.89 468.875 684.45 469.202C689.87 472.817 692.63 467.906 693.37 462.218C694.14 456.035 695.22 451.396 689.75 448.064Z" fill="#FFE9B3"/>
<path opacity="0.15" d="M689.75 448.064C688.166 446.96 686.325 446.556 684.53 446.917C683.643 447.122 682.836 447.686 682.237 448.519C681.638 449.352 681.28 450.408 681.22 451.519L678.34 451.309C678.006 451.267 677.669 451.288 677.34 451.371C676.949 451.523 676.618 451.847 676.409 452.282C676.2 452.717 676.129 453.232 676.21 453.728C676.316 454.217 676.567 454.639 676.914 454.911C677.26 455.183 677.676 455.285 678.08 455.196C676.663 455.893 675.399 456.992 674.39 458.405C673.638 459.806 673.363 461.515 673.625 463.164C673.887 464.813 674.665 466.268 675.79 467.215C676.972 468.056 678.361 468.335 679.698 468.001C681.034 467.667 682.226 466.743 683.05 465.401C682.882 466.137 682.93 466.922 683.186 467.618C683.443 468.314 683.89 468.875 684.45 469.202C689.87 472.817 692.63 467.906 693.37 462.218C694.14 456.035 695.22 451.396 689.75 448.064Z" fill="black"/>
<path d="M708.75 460.404C707.166 459.3 705.325 458.896 703.53 459.256C702.643 459.462 701.836 460.026 701.237 460.859C700.638 461.692 700.28 462.748 700.22 463.859L697.34 463.649C697.006 463.607 696.669 463.627 696.34 463.711C695.949 463.863 695.618 464.187 695.409 464.622C695.2 465.057 695.129 465.572 695.21 466.068C695.316 466.557 695.567 466.979 695.914 467.251C696.26 467.523 696.676 467.625 697.08 467.536C695.663 468.233 694.399 469.332 693.39 470.745C692.638 472.145 692.363 473.855 692.625 475.504C692.887 477.153 693.665 478.608 694.79 479.555C695.972 480.395 697.361 480.675 698.698 480.341C700.034 480.007 701.226 479.082 702.05 477.741C701.882 478.477 701.93 479.262 702.186 479.958C702.443 480.653 702.89 481.215 703.45 481.542C708.87 485.157 711.63 480.246 712.37 474.557C713.14 468.375 714.22 463.736 708.75 460.404Z" fill="#FFE9B3"/>
<path opacity="0.15" d="M708.75 460.404C707.166 459.3 705.325 458.896 703.53 459.256C702.643 459.462 701.836 460.026 701.237 460.859C700.638 461.692 700.28 462.748 700.22 463.859L697.34 463.649C697.006 463.607 696.669 463.627 696.34 463.711C695.949 463.863 695.618 464.187 695.409 464.622C695.2 465.057 695.129 465.572 695.21 466.068C695.316 466.557 695.567 466.979 695.914 467.251C696.26 467.523 696.676 467.625 697.08 467.536C695.663 468.233 694.399 469.332 693.39 470.745C692.638 472.145 692.363 473.855 692.625 475.504C692.887 477.153 693.665 478.608 694.79 479.555C695.972 480.395 697.361 480.675 698.698 480.341C700.034 480.007 701.226 479.082 702.05 477.741C701.882 478.477 701.93 479.262 702.186 479.958C702.443 480.653 702.89 481.215 703.45 481.542C708.87 485.157 711.63 480.246 712.37 474.557C713.14 468.375 714.22 463.736 708.75 460.404Z" fill="black"/>
<path d="M692.75 433.256C691.166 432.153 689.325 431.748 687.53 432.109C686.643 432.314 685.836 432.878 685.237 433.711C684.638 434.545 684.28 435.6 684.22 436.712L681.34 436.502C681.006 436.459 680.669 436.48 680.34 436.564C679.949 436.715 679.618 437.04 679.409 437.475C679.2 437.91 679.129 438.425 679.21 438.92C679.316 439.409 679.567 439.832 679.914 440.103C680.26 440.375 680.676 440.477 681.08 440.389C679.663 441.086 678.399 442.185 677.39 443.597C676.638 444.998 676.363 446.708 676.625 448.357C676.887 450.006 677.665 451.461 678.79 452.408C679.972 453.248 681.361 453.527 682.698 453.193C684.034 452.859 685.226 451.935 686.05 450.594C685.882 451.329 685.93 452.114 686.186 452.81C686.443 453.506 686.89 454.067 687.45 454.394C692.87 458.01 695.63 453.099 696.37 447.41C697.14 441.228 698.22 436.588 692.75 433.256Z" fill="#FFE9B3"/>
<path opacity="0.15" d="M692.75 433.256C691.166 432.153 689.325 431.748 687.53 432.109C686.643 432.314 685.836 432.878 685.237 433.711C684.638 434.545 684.28 435.6 684.22 436.712L681.34 436.502C681.006 436.459 680.669 436.48 680.34 436.564C679.949 436.715 679.618 437.04 679.409 437.475C679.2 437.91 679.129 438.425 679.21 438.92C679.316 439.409 679.567 439.832 679.914 440.103C680.26 440.375 680.676 440.477 681.08 440.389C679.663 441.086 678.399 442.185 677.39 443.597C676.638 444.998 676.363 446.708 676.625 448.357C676.887 450.006 677.665 451.461 678.79 452.408C679.972 453.248 681.361 453.527 682.698 453.193C684.034 452.859 685.226 451.935 686.05 450.594C685.882 451.329 685.93 452.114 686.186 452.81C686.443 453.506 686.89 454.067 687.45 454.394C692.87 458.01 695.63 453.099 696.37 447.41C697.14 441.228 698.22 436.588 692.75 433.256Z" fill="black"/>
<path d="M706.74 462.971C707.656 461.03 708.009 458.763 707.74 456.542C707.583 455.444 707.134 454.441 706.464 453.693C705.794 452.944 704.941 452.492 704.04 452.408L704.25 448.854C704.301 448.445 704.301 448.029 704.25 447.62C704.203 447.369 704.117 447.132 703.996 446.921C703.875 446.711 703.722 446.533 703.545 446.396C703.368 446.259 703.171 446.166 702.965 446.123C702.759 446.08 702.549 446.088 702.345 446.145C702.141 446.203 701.949 446.309 701.779 446.459C701.609 446.608 701.464 446.797 701.353 447.015C701.242 447.234 701.167 447.477 701.132 447.731C701.097 447.985 701.103 448.245 701.15 448.496C700.6 446.74 699.723 445.167 698.59 443.906C697.463 442.96 696.079 442.601 694.739 442.906C693.399 443.211 692.21 444.156 691.43 445.535C690.736 446.985 690.495 448.699 690.753 450.353C691.011 452.007 691.749 453.488 692.83 454.518C692.235 454.303 691.597 454.356 691.03 454.665C690.463 454.974 690.002 455.521 689.73 456.208C686.73 462.86 690.73 466.315 695.29 467.314C700.24 468.289 704 469.683 706.74 462.971Z" fill="#FFE9B3"/>
<path d="M706.74 443.227C707.656 441.287 708.009 439.019 707.74 436.798C707.583 435.7 707.134 434.698 706.464 433.949C705.794 433.201 704.941 432.749 704.04 432.664L704.25 429.11C704.301 428.701 704.301 428.285 704.25 427.876C704.156 427.369 703.902 426.929 703.545 426.652C703.188 426.376 702.756 426.286 702.345 426.402C701.934 426.518 701.577 426.831 701.353 427.272C701.129 427.713 701.056 428.245 701.15 428.753C700.6 426.996 699.723 425.423 698.59 424.162C697.463 423.217 696.079 422.858 694.739 423.163C693.399 423.467 692.21 424.412 691.43 425.791C690.736 427.242 690.495 428.955 690.753 430.609C691.011 432.264 691.749 433.745 692.83 434.774C692.235 434.56 691.597 434.612 691.03 434.921C690.463 435.231 690.002 435.777 689.73 436.465C686.73 443.116 690.73 446.571 695.29 447.57C700.24 448.545 704 449.94 706.74 443.227Z" fill="#FFE9B3"/>
<path d="M689.74 469.14C690.656 467.2 691.009 464.932 690.74 462.711C690.583 461.613 690.134 460.611 689.464 459.862C688.794 459.114 687.941 458.662 687.04 458.577L687.25 455.023C687.301 454.615 687.301 454.198 687.25 453.79C687.156 453.282 686.902 452.842 686.545 452.565C686.188 452.289 685.756 452.199 685.345 452.315C684.934 452.431 684.577 452.744 684.353 453.185C684.129 453.626 684.056 454.158 684.15 454.666C683.6 452.909 682.723 451.336 681.59 450.075C680.463 449.13 679.079 448.771 677.739 449.076C676.399 449.381 675.21 450.325 674.43 451.704C673.736 453.155 673.495 454.868 673.753 456.523C674.011 458.177 674.749 459.658 675.83 460.687C675.235 460.473 674.597 460.525 674.03 460.834C673.463 461.144 673.002 461.69 672.73 462.378C669.73 469.029 673.73 472.484 678.29 473.484C683.24 474.458 687 475.853 689.74 469.14Z" fill="#FFE9B3"/>
<path d="M708.74 491.351C709.656 489.411 710.009 487.143 709.74 484.922C709.583 483.824 709.134 482.822 708.464 482.074C707.794 481.325 706.941 480.873 706.04 480.789L706.25 477.235C706.301 476.826 706.301 476.41 706.25 476.001C706.156 475.494 705.902 475.053 705.545 474.777C705.188 474.5 704.756 474.41 704.345 474.526C703.934 474.643 703.577 474.955 703.353 475.396C703.129 475.837 703.056 476.37 703.15 476.877C702.6 475.12 701.723 473.548 700.59 472.287C699.463 471.341 698.079 470.982 696.739 471.287C695.399 471.592 694.21 472.536 693.43 473.916C692.736 475.366 692.495 477.08 692.753 478.734C693.011 480.388 693.749 481.869 694.83 482.899C694.235 482.684 693.597 482.736 693.03 483.046C692.463 483.355 692.002 483.902 691.73 484.589C688.73 491.24 692.73 494.695 697.29 495.695C702.24 496.67 706 498.064 708.74 491.351Z" fill="#FFE9B3"/>
<path d="M672.74 499.989C673.656 498.049 674.009 495.781 673.74 493.56C673.583 492.462 673.134 491.46 672.464 490.711C671.794 489.963 670.941 489.511 670.04 489.426L670.25 485.873C670.301 485.464 670.301 485.048 670.25 484.639C670.156 484.131 669.902 483.691 669.545 483.414C669.188 483.138 668.756 483.048 668.345 483.164C667.934 483.28 667.577 483.593 667.353 484.034C667.129 484.475 667.056 485.007 667.15 485.515C666.6 483.758 665.723 482.186 664.59 480.924C663.463 479.979 662.079 479.62 660.739 479.925C659.399 480.23 658.21 481.174 657.43 482.553C656.736 484.004 656.495 485.717 656.753 487.372C657.011 489.026 657.749 490.507 658.83 491.536C658.235 491.322 657.597 491.374 657.03 491.683C656.463 491.993 656.002 492.539 655.73 493.227C652.73 499.878 656.73 503.333 661.29 504.333C666.24 505.307 670 506.702 672.74 499.989Z" fill="#FFE9B3"/>
<path d="M664.74 449.397C665.656 447.457 666.009 445.189 665.74 442.968C665.583 441.87 665.134 440.867 664.464 440.119C663.794 439.371 662.941 438.918 662.04 438.834L662.25 435.28C662.301 434.871 662.301 434.455 662.25 434.046C662.156 433.539 661.902 433.099 661.545 432.822C661.188 432.546 660.756 432.456 660.345 432.572C659.934 432.688 659.577 433.001 659.353 433.442C659.129 433.883 659.056 434.415 659.15 434.922C658.6 433.166 657.723 431.593 656.59 430.332C655.463 429.387 654.079 429.028 652.739 429.333C651.399 429.637 650.21 430.582 649.43 431.961C648.736 433.412 648.495 435.125 648.753 436.779C649.011 438.434 649.749 439.915 650.83 440.944C650.235 440.73 649.597 440.782 649.03 441.091C648.463 441.4 648.002 441.947 647.73 442.635C644.73 449.286 648.73 452.741 653.29 453.74C658.24 454.715 662 456.11 664.74 449.397Z" fill="#FFE9B3"/>
<path d="M685.74 443.227C686.656 441.287 687.009 439.019 686.74 436.798C686.583 435.7 686.134 434.698 685.464 433.949C684.794 433.201 683.941 432.749 683.04 432.664L683.25 429.11C683.301 428.701 683.301 428.285 683.25 427.876C683.156 427.369 682.902 426.929 682.545 426.652C682.188 426.376 681.756 426.286 681.345 426.402C680.934 426.518 680.577 426.831 680.353 427.272C680.129 427.713 680.056 428.245 680.15 428.753C679.6 426.996 678.723 425.423 677.59 424.162C676.463 423.217 675.079 422.858 673.739 423.163C672.399 423.467 671.21 424.412 670.43 425.791C669.736 427.242 669.495 428.955 669.753 430.609C670.011 432.264 670.749 433.745 671.83 434.774C671.235 434.56 670.597 434.612 670.03 434.921C669.463 435.231 669.002 435.777 668.73 436.465C665.73 443.116 669.73 446.571 674.29 447.57C679.24 448.545 683 449.94 685.74 443.227Z" fill="#FFE9B3"/>
<path d="M643.74 466.672C644.656 464.732 645.009 462.464 644.74 460.243C644.583 459.145 644.134 458.143 643.464 457.394C642.794 456.646 641.941 456.194 641.04 456.11L641.25 452.556C641.301 452.147 641.301 451.731 641.25 451.322C641.156 450.814 640.902 450.374 640.545 450.098C640.188 449.821 639.756 449.731 639.345 449.847C638.934 449.963 638.577 450.276 638.353 450.717C638.129 451.158 638.056 451.691 638.15 452.198C637.6 450.441 636.723 448.869 635.59 447.607C634.463 446.662 633.079 446.303 631.739 446.608C630.399 446.913 629.21 447.857 628.43 449.236C627.736 450.687 627.495 452.4 627.753 454.055C628.011 455.709 628.749 457.19 629.83 458.22C629.235 458.005 628.597 458.057 628.03 458.367C627.463 458.676 627.002 459.223 626.73 459.91C623.73 466.561 627.73 470.016 632.29 471.016C637.24 471.991 641 473.385 643.74 466.672Z" fill="#FFE9B3"/>
<path d="M627.81 523.274C633.01 522.756 638.14 521.115 643.36 521.201C650.19 521.312 656.76 524.36 662.98 527.84C664.807 528.71 666.483 529.999 667.92 531.64C668.945 533.099 669.692 534.823 670.104 536.686C670.516 538.549 670.583 540.502 670.3 542.401C669.715 546.198 668.496 549.804 666.72 552.988C664.9 556.554 662.65 560.071 659.48 561.626C657.707 562.381 655.846 562.777 653.97 562.798C646.14 563.329 638.16 562.798 630.73 559.701C626.92 558.097 623.31 555.851 619.58 553.951C607.69 547.879 594.83 545.486 582.2 542.425C581.558 542.331 580.946 542.038 580.42 541.574C577.79 538.773 583.5 528.679 584.84 525.853C587.1 521.053 589.15 520.535 593.73 520.399C605.17 520.041 616.34 524.15 627.81 523.274Z" fill="#A0616A"/>
<path d="M716.78 557.418C713.16 555.221 709.91 552.186 706.32 549.903C701.799 547.034 696.829 545.404 691.75 545.127C688.46 544.942 684.88 545.485 682.49 548.286C679.08 552.284 679.49 559.084 680.61 564.723C682.31 573.175 685.73 582.122 692.3 585.318C694.881 586.383 697.579 586.953 700.3 587.008C712.47 588.045 725.14 588.983 736.42 583.306C737.247 582.989 737.955 582.32 738.42 581.418C738.91 580.184 738.42 578.704 737.92 577.457C736.12 572.99 733.27 563.625 729.79 560.836C726.55 558.158 720.82 559.861 716.78 557.418Z" fill="#A0616A"/>
<path opacity="0.1" d="M745.38 490.216C752.046 503.266 757.526 517.183 761.72 531.714C762.893 535.288 763.569 539.08 763.72 542.931C763.72 547.213 762.51 551.359 761.24 555.407C757.194 568.357 752.498 580.985 747.18 593.215C745.58 596.917 743.75 600.779 740.58 602.815C737.25 604.963 733.15 604.629 729.34 604.049C719.793 602.76 710.325 600.691 701 597.855C706.87 598.089 712.17 592.66 714.88 586.749C717.59 580.839 718.19 574.076 718.64 567.475C719.052 563.92 718.93 560.301 718.28 556.801C717.9 554.994 717.173 553.328 716.16 551.942C715.147 550.556 713.877 549.493 712.46 548.842C712.19 545.621 714.68 542.919 717.25 541.438C719.82 539.957 722.74 539.131 724.83 536.909C727.91 533.652 728.35 528.21 727.34 523.595C726.33 518.98 724.13 514.809 722.57 510.379C720.38 504.209 731.68 497.719 732.13 491.055C732.23 489.55 731.37 492.289 732.13 491.055C732.89 489.821 737.61 494.103 738.68 493.523C745.71 489.772 741.49 482.59 745.38 490.216Z" fill="black"/>
<path d="M747.56 490.216C754.225 503.268 759.708 517.185 763.91 531.714C765.088 535.286 765.764 539.079 765.91 542.931C765.91 547.213 764.7 551.359 763.44 555.407C759.39 568.355 754.694 580.982 749.38 593.215C747.78 596.917 745.95 600.779 742.78 602.815C739.45 604.962 735.34 604.629 731.54 604.049C721.989 602.763 712.518 600.693 703.19 597.855C709.05 598.089 714.36 592.66 717.06 586.749C719.76 580.838 720.38 574.076 720.83 567.475C721.237 563.919 721.115 560.302 720.47 556.801C720.087 554.996 719.359 553.331 718.346 551.946C717.333 550.561 716.066 549.496 714.65 548.842C714.37 545.621 716.87 542.919 719.44 541.438C722.01 539.957 724.93 539.131 727.02 536.909C730.09 533.652 730.53 528.21 729.52 523.595C728.51 518.98 726.31 514.809 724.75 510.379C722.568 504.201 721.654 497.453 722.09 490.735C722.111 489.197 722.478 487.698 723.15 486.403C723.895 485.302 724.856 484.453 725.94 483.935C733 480.234 743.67 482.59 747.56 490.216Z" fill="#F98A8D"/>
<path opacity="0.1" d="M533.8 477.975C527.31 485.379 520.61 493.202 517.45 503.407C515.73 508.972 515.16 514.969 514.6 520.892C513.66 530.986 512.81 541.796 516.6 550.804C520.8 560.675 529.6 565.969 537.86 570.448C540.716 572.104 543.676 573.474 546.71 574.545C550.685 575.641 554.738 576.253 558.81 576.371L600.5 579.234C595.06 572.472 591.58 561.885 592.32 552.395C592.99 543.918 596.32 536.144 599.67 528.728C601.41 524.903 603.38 520.88 606.59 518.992C593.007 515.288 579.041 514.206 565.19 515.784C564.26 515.882 563.19 515.919 562.58 515.006C562.276 514.433 562.135 513.752 562.18 513.069C562.18 505.406 566.82 499.039 568.74 491.759C571.81 480.085 561.36 486.49 551.96 482.479C542.56 478.469 535.72 465.932 533.8 477.975Z" fill="black"/>
<path d="M530.8 477.975C524.31 485.379 517.61 493.202 514.45 503.407C512.73 508.972 512.16 514.97 511.6 520.893C510.66 530.986 509.81 541.796 513.6 550.804C517.8 560.675 526.6 565.969 534.86 570.448C537.716 572.104 540.676 573.474 543.71 574.545C547.685 575.642 551.738 576.253 555.81 576.371L597.5 579.234C592.06 572.472 588.58 561.885 589.32 552.396C589.99 543.918 593.32 536.144 596.67 528.728C598.41 524.903 600.38 520.88 603.59 518.992C590.007 515.288 576.041 514.206 562.19 515.784C561.26 515.883 560.19 515.92 559.58 515.007C559.276 514.433 559.135 513.752 559.18 513.069C559.18 505.406 563.82 499.039 565.74 491.759C568.81 480.085 563.47 465.845 554.06 461.81C544.65 457.775 532.72 465.932 530.8 477.975Z" fill="#F98A8D"/>
<path d="M635.5 345.51C663.39 345.51 686 333.908 686 319.596C686 305.285 663.39 293.683 635.5 293.683C607.61 293.683 585 305.285 585 319.596C585 333.908 607.61 345.51 635.5 345.51Z" fill="#2F2E41"/>
<path opacity="0.1" d="M634.5 334.404C610.33 334.404 590.13 325.68 585.17 314.043C584.418 315.748 584.016 317.655 584 319.596C584 333.91 606.61 345.509 634.5 345.509C662.39 345.509 685 333.91 685 319.596C684.984 317.655 684.582 315.748 683.83 314.043C678.87 325.68 658.67 334.404 634.5 334.404Z" fill="black"/>
<path d="M702.75 337.007C701.166 335.904 699.325 335.499 697.53 335.86C696.643 336.065 695.836 336.629 695.237 337.462C694.638 338.296 694.28 339.351 694.22 340.463L691.34 340.253C691.006 340.21 690.669 340.231 690.34 340.314C689.949 340.466 689.618 340.791 689.409 341.226C689.2 341.661 689.129 342.176 689.21 342.671C689.316 343.16 689.567 343.583 689.914 343.854C690.26 344.126 690.676 344.228 691.08 344.14C689.663 344.837 688.399 345.936 687.39 347.348C686.638 348.749 686.363 350.459 686.625 352.108C686.887 353.757 687.665 355.212 688.79 356.159C689.972 356.999 691.361 357.278 692.698 356.944C694.034 356.61 695.226 355.686 696.05 354.345C695.882 355.08 695.93 355.865 696.186 356.561C696.443 357.257 696.89 357.818 697.45 358.145C702.87 361.761 705.63 356.85 706.37 351.161C707.14 344.979 708.22 340.339 702.75 337.007Z" fill="#FFE9B3"/>
<path opacity="0.15" d="M702.75 337.007C701.166 335.904 699.325 335.499 697.53 335.86C696.643 336.065 695.836 336.629 695.237 337.462C694.638 338.296 694.28 339.351 694.22 340.463L691.34 340.253C691.006 340.21 690.669 340.231 690.34 340.314C689.949 340.466 689.618 340.791 689.409 341.226C689.2 341.661 689.129 342.176 689.21 342.671C689.316 343.16 689.567 343.583 689.914 343.854C690.26 344.126 690.676 344.228 691.08 344.14C689.663 344.837 688.399 345.936 687.39 347.348C686.638 348.749 686.363 350.459 686.625 352.108C686.887 353.757 687.665 355.212 688.79 356.159C689.972 356.999 691.361 357.278 692.698 356.944C694.034 356.61 695.226 355.686 696.05 354.345C695.882 355.08 695.93 355.865 696.186 356.561C696.443 357.257 696.89 357.818 697.45 358.145C702.87 361.761 705.63 356.85 706.37 351.161C707.14 344.979 708.22 340.339 702.75 337.007Z" fill="black"/>
<path d="M750.75 430.789C749.166 429.685 747.325 429.28 745.53 429.641C744.643 429.847 743.836 430.41 743.237 431.244C742.638 432.077 742.28 433.132 742.22 434.244L739.34 434.034C739.006 433.991 738.669 434.012 738.34 434.096C737.949 434.247 737.618 434.572 737.409 435.007C737.2 435.442 737.129 435.957 737.21 436.453C737.316 436.942 737.567 437.364 737.914 437.636C738.26 437.907 738.676 438.009 739.08 437.921C737.663 438.618 736.399 439.717 735.39 441.129C734.638 442.53 734.363 444.24 734.625 445.889C734.887 447.538 735.665 448.993 736.79 449.94C737.972 450.78 739.361 451.06 740.698 450.726C742.034 450.392 743.226 449.467 744.05 448.126C743.882 448.861 743.93 449.647 744.186 450.342C744.443 451.038 744.89 451.599 745.45 451.926C750.87 455.542 753.63 450.631 754.37 444.942C755.14 438.76 756.22 434.12 750.75 430.789Z" fill="#FFE9B3"/>
<path opacity="0.15" d="M750.75 430.789C749.166 429.685 747.325 429.28 745.53 429.641C744.643 429.847 743.836 430.41 743.237 431.244C742.638 432.077 742.28 433.132 742.22 434.244L739.34 434.034C739.006 433.991 738.669 434.012 738.34 434.096C737.949 434.247 737.618 434.572 737.409 435.007C737.2 435.442 737.129 435.957 737.21 436.453C737.316 436.942 737.567 437.364 737.914 437.636C738.26 437.907 738.676 438.009 739.08 437.921C737.663 438.618 736.399 439.717 735.39 441.129C734.638 442.53 734.363 444.24 734.625 445.889C734.887 447.538 735.665 448.993 736.79 449.94C737.972 450.78 739.361 451.06 740.698 450.726C742.034 450.392 743.226 449.467 744.05 448.126C743.882 448.861 743.93 449.647 744.186 450.342C744.443 451.038 744.89 451.599 745.45 451.926C750.87 455.542 753.63 450.631 754.37 444.942C755.14 438.76 756.22 434.12 750.75 430.789Z" fill="black"/>
<path d="M806.75 530.739C805.166 529.636 803.325 529.231 801.53 529.592C800.643 529.797 799.836 530.361 799.237 531.194C798.638 532.028 798.28 533.083 798.22 534.194L795.34 533.985C795.006 533.942 794.669 533.963 794.34 534.046C793.949 534.198 793.618 534.522 793.409 534.958C793.2 535.393 793.129 535.908 793.21 536.403C793.316 536.892 793.567 537.314 793.914 537.586C794.26 537.858 794.676 537.96 795.08 537.872C793.663 538.569 792.399 539.668 791.39 541.08C790.638 542.481 790.363 544.191 790.625 545.84C790.887 547.488 791.665 548.944 792.79 549.89C793.972 550.731 795.361 551.01 796.698 550.676C798.034 550.342 799.226 549.418 800.05 548.077C799.882 548.812 799.93 549.597 800.186 550.293C800.443 550.989 800.89 551.55 801.45 551.877C806.87 555.493 809.63 550.581 810.37 544.893C811.14 538.711 812.22 534.071 806.75 530.739Z" fill="#FFE9B3"/>
<path opacity="0.15" d="M806.75 530.739C805.166 529.636 803.325 529.231 801.53 529.592C800.643 529.797 799.836 530.361 799.237 531.194C798.638 532.028 798.28 533.083 798.22 534.194L795.34 533.985C795.006 533.942 794.669 533.963 794.34 534.046C793.949 534.198 793.618 534.522 793.409 534.958C793.2 535.393 793.129 535.908 793.21 536.403C793.316 536.892 793.567 537.314 793.914 537.586C794.26 537.858 794.676 537.96 795.08 537.872C793.663 538.569 792.399 539.668 791.39 541.08C790.638 542.481 790.363 544.191 790.625 545.84C790.887 547.488 791.665 548.944 792.79 549.89C793.972 550.731 795.361 551.01 796.698 550.676C798.034 550.342 799.226 549.418 800.05 548.077C799.882 548.812 799.93 549.597 800.186 550.293C800.443 550.989 800.89 551.55 801.45 551.877C806.87 555.493 809.63 550.581 810.37 544.893C811.14 538.711 812.22 534.071 806.75 530.739Z" fill="black"/>
<path d="M720.74 309.959C721.656 308.019 722.009 305.751 721.74 303.53C721.583 302.432 721.134 301.429 720.464 300.681C719.794 299.933 718.941 299.48 718.04 299.396L718.25 295.842C718.301 295.433 718.301 295.017 718.25 294.608C718.156 294.101 717.902 293.661 717.545 293.384C717.188 293.108 716.756 293.018 716.345 293.134C715.934 293.25 715.577 293.563 715.353 294.004C715.129 294.445 715.056 294.977 715.15 295.484C714.6 293.728 713.723 292.155 712.59 290.894C711.463 289.949 710.079 289.59 708.739 289.895C707.399 290.199 706.21 291.144 705.43 292.523C704.736 293.974 704.495 295.687 704.753 297.341C705.011 298.996 705.749 300.477 706.83 301.506C706.235 301.292 705.597 301.344 705.03 301.653C704.463 301.962 704.002 302.509 703.73 303.197C700.73 309.848 704.73 313.303 709.29 314.302C714.24 315.277 718 316.672 720.74 309.959Z" fill="#FFE9B3"/>
<path d="M714.74 266.77C715.656 264.83 716.009 262.562 715.74 260.341C715.583 259.243 715.134 258.241 714.464 257.493C713.794 256.744 712.941 256.292 712.04 256.208L712.25 252.654C712.301 252.245 712.301 251.829 712.25 251.42C712.156 250.913 711.902 250.472 711.545 250.196C711.188 249.919 710.756 249.829 710.345 249.945C709.934 250.061 709.577 250.374 709.353 250.815C709.129 251.256 709.056 251.789 709.15 252.296C708.6 250.539 707.723 248.967 706.59 247.706C705.463 246.76 704.079 246.401 702.739 246.706C701.399 247.011 700.21 247.955 699.43 249.334C698.736 250.785 698.495 252.499 698.753 254.153C699.011 255.807 699.749 257.288 700.83 258.318C700.235 258.103 699.597 258.155 699.03 258.465C698.463 258.774 698.002 259.321 697.73 260.008C694.73 266.659 698.73 270.114 703.29 271.114C708.24 272.089 712 273.483 714.74 266.77Z" fill="#FFE9B3"/>
<path d="M564.75 622.053C563.166 620.949 561.325 620.544 559.53 620.905C558.643 621.111 557.836 621.675 557.237 622.508C556.638 623.341 556.28 624.396 556.22 625.508L553.34 625.298C553.009 625.235 552.671 625.235 552.34 625.298C551.949 625.45 551.618 625.774 551.409 626.209C551.2 626.644 551.129 627.159 551.21 627.655C551.316 628.144 551.567 628.566 551.914 628.838C552.26 629.11 552.676 629.212 553.08 629.123C551.663 629.82 550.399 630.919 549.39 632.332C548.638 633.733 548.363 635.442 548.625 637.091C548.887 638.74 549.665 640.196 550.79 641.142C551.972 641.983 553.361 642.262 554.698 641.928C556.034 641.594 557.226 640.67 558.05 639.328C557.882 640.064 557.93 640.849 558.186 641.545C558.443 642.241 558.89 642.802 559.45 643.129C564.87 646.744 567.63 641.895 568.37 636.145C569.14 630.024 570.22 625.385 564.75 622.053Z" fill="#FFE9B3"/>
<path opacity="0.15" d="M564.75 622.053C563.166 620.949 561.325 620.544 559.53 620.905C558.643 621.111 557.836 621.675 557.237 622.508C556.638 623.341 556.28 624.396 556.22 625.508L553.34 625.298C553.009 625.235 552.671 625.235 552.34 625.298C551.949 625.45 551.618 625.774 551.409 626.209C551.2 626.644 551.129 627.159 551.21 627.655C551.316 628.144 551.567 628.566 551.914 628.838C552.26 629.11 552.676 629.212 553.08 629.123C551.663 629.82 550.399 630.919 549.39 632.332C548.638 633.733 548.363 635.442 548.625 637.091C548.887 638.74 549.665 640.196 550.79 641.142C551.972 641.983 553.361 642.262 554.698 641.928C556.034 641.594 557.226 640.67 558.05 639.328C557.882 640.064 557.93 640.849 558.186 641.545C558.443 642.241 558.89 642.802 559.45 643.129C564.87 646.744 567.63 641.895 568.37 636.145C569.14 630.024 570.22 625.385 564.75 622.053Z" fill="black"/>
<path d="M528.74 619.683C529.656 617.743 530.009 615.475 529.74 613.255C529.583 612.156 529.134 611.154 528.464 610.406C527.794 609.657 526.941 609.205 526.04 609.121L526.25 605.567C526.301 605.158 526.301 604.742 526.25 604.333C526.156 603.826 525.902 603.385 525.545 603.109C525.188 602.832 524.756 602.742 524.345 602.858C523.934 602.975 523.577 603.287 523.353 603.728C523.129 604.169 523.056 604.702 523.15 605.209C522.6 603.452 521.723 601.88 520.59 600.619C519.463 599.673 518.079 599.314 516.739 599.619C515.399 599.924 514.21 600.868 513.43 602.248C512.736 603.698 512.495 605.412 512.753 607.066C513.011 608.72 513.749 610.201 514.83 611.231C514.235 611.016 513.597 611.068 513.03 611.378C512.463 611.687 512.002 612.234 511.73 612.921C508.73 619.572 512.73 623.028 517.29 624.027C522.24 625.002 526 626.396 528.74 619.683Z" fill="#FFE9B3"/>
<path d="M576.74 551.816C577.656 549.875 578.009 547.608 577.74 545.387C577.583 544.289 577.134 543.286 576.464 542.538C575.794 541.789 574.941 541.337 574.04 541.253L574.25 537.699C574.301 537.29 574.301 536.874 574.25 536.465C574.156 535.958 573.902 535.518 573.545 535.241C573.188 534.965 572.756 534.875 572.345 534.991C571.934 535.107 571.577 535.42 571.353 535.861C571.129 536.301 571.056 536.834 571.15 537.341C570.6 535.585 569.723 534.012 568.59 532.751C567.463 531.806 566.079 531.447 564.739 531.751C563.399 532.056 562.21 533.001 561.43 534.38C560.736 535.83 560.495 537.544 560.753 539.198C561.011 540.853 561.749 542.334 562.83 543.363C562.235 543.149 561.597 543.201 561.03 543.51C560.463 543.819 560.002 544.366 559.73 545.054C556.73 551.705 560.73 555.16 565.29 556.159C570.24 557.134 574 558.528 576.74 551.816Z" fill="#FFE9B3"/>
<path d="M499.91 574.224C490.17 571.152 480.03 568.054 470.19 570.522C465.81 571.621 461.67 573.792 457.41 575.458C446.92 579.469 435.832 580.513 424.971 578.511C414.109 576.51 403.752 571.514 394.67 563.896C384.47 555.197 373.87 542.511 361.79 545.954C358.54 546.892 355.53 548.99 352.21 549.446C345.98 550.322 340.21 545.337 334.03 544.165C323.39 542.154 313.72 551.359 305.54 559.997L262.41 605.542C259.14 608.997 255.54 613.563 256.41 618.746C257.74 626.359 267.19 627.383 269.62 634.602C271.38 639.772 268.47 645.794 264.62 648.743C260.77 651.692 256.11 652.445 251.79 654.234C245.263 656.933 239.412 661.669 234.807 667.983C230.202 674.296 226.999 681.973 225.51 690.266C224.75 694.684 224.51 699.274 223.1 703.445C221.58 707.986 218.83 711.712 216.8 715.932C207.92 734.319 213.75 758.714 207.01 778.433C203.44 788.897 196.29 799.015 198.55 810.01C200.61 819.98 209.48 825.076 217.55 827.717C218.5 834.504 216.55 839.292 212.55 844.166C246.1 861.182 282.11 878.556 317.7 869.857C329.91 866.883 341.8 860.849 354.24 861.096C363.07 861.269 371.8 864.625 380.61 863.86C399.2 862.243 416.27 842.636 434.28 848.522C428.85 848.978 426.84 858.776 430.04 864.218C433.24 869.659 439.13 871.399 444.55 872.041C449.97 872.683 455.71 872.732 460.41 876.138C456.85 885.281 444.1 888.477 445.33 898.534C445.78 902.162 448.16 904.914 450.52 907.172C474.77 930.087 508.17 927.89 538.52 931.851C560.9 934.739 582.84 941.488 605.15 945.092C640.79 950.83 676.92 948.485 712.8 946.116C719.31 945.684 726.61 944.795 730.8 938.626C736.36 930.407 733.27 918.228 732.57 907.567C729.85 865.847 766.83 837.132 777.19 797.275C781.19 781.715 781.02 764.995 780.3 748.669C778.69 711.848 774.02 673.003 755 644.572C739.34 621.127 715.93 607.924 692.62 598.25C677.78 592.08 662.23 587.008 646.62 588.822C620.42 591.87 593.95 613.945 569.76 601.162C563.36 597.781 557.91 592.191 551.83 588.02C535.85 576.877 517.72 579.839 499.91 574.224Z" fill="#8EA1A5"/>
<g opacity="0.1">
<path opacity="0.1" d="M635.21 912.959C612.9 909.356 591 902.643 568.58 899.719C538.2 895.795 504.8 897.991 480.58 875.039C478.22 872.806 475.84 870.104 475.39 866.402C474.16 856.37 486.91 853.149 490.47 844.005C485.77 840.6 480.04 840.562 474.61 839.908C469.18 839.254 463.3 837.527 460.1 832.085C456.9 826.643 458.91 816.846 464.34 816.389C446.34 810.503 429.26 830.111 410.67 831.727C401.86 832.492 393.13 829.136 384.3 828.963C371.86 828.716 359.97 834.751 347.76 837.724C312.17 846.362 276.17 829.087 242.61 812.033C246.56 807.097 248.53 802.371 247.61 795.585C239.56 792.944 230.69 787.848 228.61 777.877C226.35 766.883 233.5 756.764 237.07 746.3C243.81 726.557 237.98 702.186 246.86 683.8C248.86 679.58 251.64 675.853 253.16 671.312C254.55 667.142 254.81 662.551 255.57 658.134C255.898 656.199 256.332 654.294 256.87 652.433C255.19 653 253.49 653.519 251.87 654.185C245.343 656.883 239.492 661.619 234.887 667.933C230.282 674.247 227.079 681.923 225.59 690.217C224.83 694.634 224.59 699.225 223.18 703.395C221.66 707.936 218.91 711.663 216.88 715.883C208 734.269 213.83 758.664 207.09 778.383C203.52 788.847 196.37 798.966 198.63 809.96C200.69 819.931 209.56 825.027 217.63 827.668C218.58 834.454 216.63 839.242 212.63 844.116C246.19 861.133 282.19 878.507 317.78 869.807C329.99 866.834 341.88 860.799 354.32 861.046C363.15 861.219 371.88 864.575 380.69 863.81C399.28 862.194 416.35 842.586 434.36 848.472C428.93 848.929 426.92 858.726 430.12 864.168C433.32 869.61 439.21 871.35 444.63 871.991C450.05 872.633 455.79 872.683 460.49 876.088C456.93 885.232 444.18 888.428 445.41 898.485C445.86 902.113 448.24 904.864 450.6 907.122C474.85 930.037 508.25 927.841 538.6 931.802C560.98 934.689 582.92 941.439 605.23 945.042C640.87 950.78 677 948.435 712.88 946.066C719.39 945.634 726.69 944.746 730.88 938.576C735.23 932.135 734.28 923.275 733.33 914.6C700.57 916.698 667.68 918.191 635.21 912.959Z" fill="black"/>
<path opacity="0.1" d="M268.18 631.838C272.137 627.493 276.777 624.199 281.81 622.164C286.13 620.436 290.81 619.609 294.64 616.673C298.47 613.736 301.41 607.702 299.64 602.531C297.21 595.362 287.76 594.289 286.43 586.675C285.82 583.171 287.27 579.95 289.29 577.161L262.4 605.542C259.13 608.997 255.53 613.563 256.4 618.746C257.57 625.261 264.63 627.001 268.18 631.838Z" fill="black"/>
</g>
<path d="M358.74 607.344C359.656 605.404 360.009 603.136 359.74 600.915C359.583 599.817 359.134 598.815 358.464 598.066C357.794 597.318 356.941 596.866 356.04 596.781L356.25 593.228C356.284 592.816 356.267 592.399 356.2 591.994C356.106 591.486 355.852 591.046 355.495 590.769C355.138 590.493 354.706 590.403 354.295 590.519C353.884 590.635 353.527 590.948 353.303 591.389C353.079 591.83 353.006 592.362 353.1 592.87C352.55 591.113 351.673 589.541 350.54 588.279C349.413 587.334 348.029 586.975 346.689 587.28C345.349 587.585 344.16 588.529 343.38 589.908C342.686 591.359 342.445 593.072 342.703 594.727C342.961 596.381 343.699 597.862 344.78 598.891C344.185 598.677 343.547 598.729 342.98 599.038C342.413 599.348 341.952 599.894 341.68 600.582C338.68 607.233 342.68 610.688 347.24 611.688C352.24 612.662 356 614.057 358.74 607.344Z" fill="#FFE9B3"/>
<path d="M504.74 846.733C505.656 844.793 506.009 842.525 505.74 840.304C505.583 839.206 505.134 838.203 504.464 837.455C503.794 836.706 502.941 836.254 502.04 836.17L502.25 832.616C502.301 832.207 502.301 831.791 502.25 831.382C502.156 830.875 501.902 830.435 501.545 830.158C501.188 829.882 500.756 829.792 500.345 829.908C499.934 830.024 499.577 830.337 499.353 830.778C499.129 831.218 499.056 831.751 499.15 832.258C498.6 830.502 497.723 828.929 496.59 827.668C495.463 826.723 494.079 826.364 492.739 826.668C491.399 826.973 490.21 827.918 489.43 829.297C488.736 830.747 488.495 832.461 488.753 834.115C489.011 835.77 489.749 837.251 490.83 838.28C490.235 838.066 489.597 838.118 489.03 838.427C488.463 838.736 488.002 839.283 487.73 839.971C484.73 846.622 488.73 850.077 493.29 851.076C498.24 852.051 502 853.446 504.74 846.733Z" fill="#FFE9B3"/>
<path d="M604.74 611.046C605.656 609.106 606.009 606.838 605.74 604.617C605.583 603.519 605.134 602.516 604.464 601.768C603.794 601.019 602.941 600.567 602.04 600.483L602.25 596.929C602.301 596.52 602.301 596.104 602.25 595.695C602.156 595.188 601.902 594.748 601.545 594.471C601.188 594.195 600.756 594.104 600.345 594.221C599.934 594.337 599.577 594.65 599.353 595.091C599.129 595.531 599.056 596.064 599.15 596.571C598.6 594.815 597.723 593.242 596.59 591.981C595.463 591.036 594.079 590.677 592.739 590.981C591.399 591.286 590.21 592.231 589.43 593.61C588.736 595.06 588.495 596.774 588.753 598.428C589.011 600.083 589.749 601.564 590.83 602.593C590.235 602.379 589.597 602.431 589.03 602.74C588.463 603.049 588.002 603.596 587.73 604.284C584.73 610.935 588.73 614.39 593.29 615.389C598.24 616.364 602 617.759 604.74 611.046Z" fill="#FFE9B3"/>
<path d="M623.55 608.331C625.212 607.423 626.573 605.843 627.41 603.852C627.809 602.854 627.927 601.72 627.746 600.63C627.565 599.539 627.095 598.554 626.41 597.83L628.26 595.091C628.498 594.778 628.694 594.419 628.84 594.03C629.006 593.55 629.01 593.009 628.853 592.525C628.695 592.042 628.389 591.655 628 591.451C627.611 591.246 627.173 591.24 626.781 591.435C626.389 591.629 626.076 592.008 625.91 592.487C626.3 590.669 626.338 588.762 626.02 586.922C625.556 585.339 624.605 584.045 623.373 583.322C622.141 582.599 620.728 582.505 619.44 583.06C618.19 583.731 617.181 584.944 616.605 586.469C616.028 587.994 615.923 589.726 616.31 591.34C615.93 590.736 615.391 590.316 614.786 590.154C614.181 589.992 613.549 590.097 613 590.451C607.42 593.672 609 599.323 612.24 603.445C615.74 607.949 618.12 611.786 623.55 608.331Z" fill="#FFE9B3"/>
<path d="M406.75 614.649C405.166 613.545 403.325 613.141 401.53 613.501C400.643 613.707 399.836 614.271 399.237 615.104C398.638 615.937 398.28 616.993 398.22 618.104L395.34 617.894C395.009 617.831 394.671 617.831 394.34 617.894C393.949 618.046 393.618 618.37 393.409 618.806C393.2 619.241 393.129 619.756 393.21 620.251C393.316 620.74 393.567 621.162 393.914 621.434C394.26 621.706 394.676 621.808 395.08 621.72C393.663 622.417 392.399 623.516 391.39 624.928C390.638 626.329 390.363 628.039 390.625 629.688C390.887 631.336 391.665 632.792 392.79 633.738C393.972 634.579 395.361 634.858 396.698 634.524C398.034 634.19 399.226 633.266 400.05 631.924C399.882 632.66 399.93 633.445 400.186 634.141C400.443 634.837 400.89 635.398 401.45 635.725C406.87 639.341 409.63 634.491 410.37 628.741C411.14 622.62 412.22 617.981 406.75 614.649Z" fill="#FFE9B3"/>
<path opacity="0.15" d="M406.75 614.649C405.166 613.545 403.325 613.141 401.53 613.501C400.643 613.707 399.836 614.271 399.237 615.104C398.638 615.937 398.28 616.993 398.22 618.104L395.34 617.894C395.009 617.831 394.671 617.831 394.34 617.894C393.949 618.046 393.618 618.37 393.409 618.806C393.2 619.241 393.129 619.756 393.21 620.251C393.316 620.74 393.567 621.162 393.914 621.434C394.26 621.706 394.676 621.808 395.08 621.72C393.663 622.417 392.399 623.516 391.39 624.928C390.638 626.329 390.363 628.039 390.625 629.688C390.887 631.336 391.665 632.792 392.79 633.738C393.972 634.579 395.361 634.858 396.698 634.524C398.034 634.19 399.226 633.266 400.05 631.924C399.882 632.66 399.93 633.445 400.186 634.141C400.443 634.837 400.89 635.398 401.45 635.725C406.87 639.341 409.63 634.491 410.37 628.741C411.14 622.62 412.22 617.981 406.75 614.649Z" fill="black"/>
<path d="M495.79 706.443C496.097 704.234 495.794 701.961 494.93 699.99C494.477 699.024 493.775 698.272 492.936 697.854C492.098 697.436 491.17 697.375 490.3 697.682L489.5 694.252C489.421 693.817 489.286 693.4 489.1 693.018C488.869 692.581 488.507 692.275 488.094 692.167C487.68 692.06 487.249 692.159 486.895 692.444C486.541 692.729 486.293 693.175 486.206 693.686C486.119 694.196 486.199 694.728 486.43 695.165C485.428 693.744 484.167 692.636 482.75 691.932C481.427 691.526 480.028 691.779 478.855 692.635C477.681 693.492 476.828 694.884 476.48 696.51C476.234 698.166 476.486 699.876 477.189 701.319C477.893 702.762 478.999 703.838 480.3 704.346C479.682 704.397 479.098 704.716 478.651 705.246C478.205 705.777 477.925 706.485 477.86 707.245C476.86 714.76 481.58 716.327 486.17 715.291C491.17 714.168 495.07 713.847 495.79 706.443Z" fill="#FFE9B3"/>
<path opacity="0.15" d="M495.79 706.443C496.097 704.234 495.794 701.961 494.93 699.99C494.477 699.024 493.775 698.272 492.936 697.854C492.098 697.436 491.17 697.375 490.3 697.682L489.5 694.252C489.421 693.817 489.286 693.4 489.1 693.018C488.869 692.581 488.507 692.275 488.094 692.167C487.68 692.06 487.249 692.159 486.895 692.444C486.541 692.729 486.293 693.175 486.206 693.686C486.119 694.196 486.199 694.728 486.43 695.165C485.428 693.744 484.167 692.636 482.75 691.932C481.427 691.526 480.028 691.779 478.855 692.635C477.681 693.492 476.828 694.884 476.48 696.51C476.234 698.166 476.486 699.876 477.189 701.319C477.893 702.762 478.999 703.838 480.3 704.346C479.682 704.397 479.098 704.716 478.651 705.246C478.205 705.777 477.925 706.485 477.86 707.245C476.86 714.76 481.58 716.327 486.17 715.291C491.17 714.168 495.07 713.847 495.79 706.443Z" fill="black"/>
<path d="M615.79 594.153C616.097 591.943 615.794 589.671 614.93 587.699C614.477 586.733 613.775 585.981 612.936 585.563C612.098 585.145 611.17 585.085 610.3 585.392L609.5 581.961C609.421 581.526 609.286 581.11 609.1 580.727C608.986 580.511 608.838 580.325 608.665 580.179C608.493 580.033 608.299 579.93 608.094 579.877C607.889 579.824 607.678 579.821 607.472 579.868C607.266 579.916 607.07 580.013 606.895 580.154C606.72 580.295 606.569 580.477 606.45 580.69C606.332 580.903 606.249 581.142 606.206 581.395C606.163 581.648 606.16 581.908 606.199 582.162C606.237 582.416 606.316 582.658 606.43 582.874C605.428 581.453 604.167 580.345 602.75 579.641C601.427 579.235 600.028 579.488 598.855 580.345C597.681 581.201 596.828 582.593 596.48 584.219C596.234 585.876 596.486 587.586 597.189 589.028C597.893 590.471 598.999 591.548 600.3 592.055C599.682 592.106 599.098 592.425 598.651 592.956C598.205 593.486 597.925 594.194 597.86 594.955C596.86 602.47 601.58 604.037 606.17 603C611.17 601.877 615.07 601.557 615.79 594.153Z" fill="#FFE9B3"/>
<path opacity="0.15" d="M615.79 594.153C616.097 591.943 615.794 589.671 614.93 587.699C614.477 586.733 613.775 585.981 612.936 585.563C612.098 585.145 611.17 585.085 610.3 585.392L609.5 581.961C609.421 581.526 609.286 581.11 609.1 580.727C608.986 580.511 608.838 580.325 608.665 580.179C608.493 580.033 608.299 579.93 608.094 579.877C607.889 579.824 607.678 579.821 607.472 579.868C607.266 579.916 607.07 580.013 606.895 580.154C606.72 580.295 606.569 580.477 606.45 580.69C606.332 580.903 606.249 581.142 606.206 581.395C606.163 581.648 606.16 581.908 606.199 582.162C606.237 582.416 606.316 582.658 606.43 582.874C605.428 581.453 604.167 580.345 602.75 579.641C601.427 579.235 600.028 579.488 598.855 580.345C597.681 581.201 596.828 582.593 596.48 584.219C596.234 585.876 596.486 587.586 597.189 589.028C597.893 590.471 598.999 591.548 600.3 592.055C599.682 592.106 599.098 592.425 598.651 592.956C598.205 593.486 597.925 594.194 597.86 594.955C596.86 602.47 601.58 604.037 606.17 603C611.17 601.877 615.07 601.557 615.79 594.153Z" fill="black"/>
</g>
<defs>
<clipPath id="clip0">
<rect width="1022" height="981" fill="white"/>
</clipPath>
</defs>
</svg>
