<svg width="96" height="96" viewBox="0 0 96 96" fill="none" xmlns="http://www.w3.org/2000/svg">
<g opacity="0.5">
<path opacity="0.5" d="M47.75 95.5C74.1216 95.5 95.5 74.1216 95.5 47.75C95.5 21.3784 74.1216 0 47.75 0C21.3784 0 0 21.3784 0 47.75C0 74.1216 21.3784 95.5 47.75 95.5Z" fill="url(#paint0_linear)"/>
</g>
<path d="M47.84 94.19C73.6593 94.19 94.59 73.2593 94.59 47.44C94.59 21.6207 73.6593 0.690002 47.84 0.690002C22.0207 0.690002 1.09 21.6207 1.09 47.44C1.09 73.2593 22.0207 94.19 47.84 94.19Z" fill="#F5F5F5"/>
<path d="M47.88 94.37C57.0124 94.3833 65.9469 91.7089 73.57 86.68C71.85 77.27 65.29 76.68 65.29 76.68H29.16C29.16 76.68 22.97 77.19 21.04 85.85C28.8919 91.3941 38.2681 94.3704 47.88 94.37Z" fill="#8EA1A5"/>
<path d="M47.39 69.02C59.8496 69.02 69.95 58.9196 69.95 46.46C69.95 34.0005 59.8496 23.9 47.39 23.9C34.9305 23.9 24.83 34.0005 24.83 46.46C24.83 58.9196 34.9305 69.02 47.39 69.02Z" fill="#333333"/>
<path opacity="0.1" d="M40.11 65.25H54.57V76.82C54.57 78.7375 53.8083 80.5765 52.4524 81.9324C51.0965 83.2883 49.2575 84.05 47.34 84.05C45.4225 84.05 43.5835 83.2883 42.2276 81.9324C40.8717 80.5765 40.11 78.7375 40.11 76.82V65.25Z" fill="black"/>
<path d="M41.5 64.71H53.2C53.566 64.71 53.917 64.8554 54.1758 65.1142C54.4346 65.373 54.58 65.724 54.58 66.09V76.28C54.58 77.2295 54.393 78.1696 54.0297 79.0468C53.6663 79.924 53.1337 80.721 52.4624 81.3924C51.791 82.0638 50.994 82.5963 50.1168 82.9597C49.2396 83.323 48.2995 83.51 47.35 83.51C45.4325 83.51 43.5935 82.7483 42.2376 81.3924C40.8817 80.0365 40.12 78.1975 40.12 76.28V66.09C40.12 65.724 40.2654 65.373 40.5242 65.1142C40.783 64.8554 41.134 64.71 41.5 64.71Z" fill="#FDB797"/>
<path opacity="0.1" d="M40.14 70.71C44.8051 72.4384 49.935 72.4384 54.6 70.71V68.93H40.14V70.71Z" fill="black"/>
<path d="M47.39 71.67C58.8334 71.67 68.11 62.3934 68.11 50.95C68.11 39.5067 58.8334 30.23 47.39 30.23C35.9467 30.23 26.67 39.5067 26.67 50.95C26.67 62.3934 35.9467 71.67 47.39 71.67Z" fill="#FDB797"/>
<path opacity="0.1" d="M32.63 32.11C32.63 32.11 41.36 49.84 66 39.54L60.26 30.54L50.09 26.89L32.63 32.11Z" fill="black"/>
<path d="M32.63 31.84C32.63 31.84 41.36 49.57 66 39.27L60.26 30.27L50.09 26.62L32.63 31.84Z" fill="#333333"/>
<path d="M32.55 30.65C33.1486 28.8229 34.1775 27.1665 35.55 25.82C39.63 21.82 46.31 20.94 49.74 16.35C49.9264 16.6749 50.0426 17.0352 50.0812 17.4077C50.1197 17.7803 50.0798 18.1568 49.9639 18.513C49.848 18.8691 49.6587 19.1971 49.4083 19.4756C49.1579 19.7541 48.8519 19.9771 48.51 20.13C51.79 20.13 55.6 19.82 57.46 17.13C57.9248 18.1955 58.0775 19.371 57.9005 20.5199C57.7235 21.6688 57.2239 22.7439 56.46 23.62C59.37 23.75 62.46 25.73 62.66 28.62C62.6594 29.5931 62.4134 30.5504 61.945 31.4033C61.4766 32.2562 60.8008 32.9774 59.98 33.5C58.3242 34.5127 56.4864 35.1921 54.57 35.5C49 36.76 28.94 41.87 32.55 30.65Z" fill="#333333"/>
<path d="M26.66 54.54C27.7259 54.54 28.59 52.9238 28.59 50.93C28.59 48.9363 27.7259 47.32 26.66 47.32C25.5941 47.32 24.73 48.9363 24.73 50.93C24.73 52.9238 25.5941 54.54 26.66 54.54Z" fill="#FDB797"/>
<path d="M68.11 54.54C69.1759 54.54 70.04 52.9238 70.04 50.93C70.04 48.9363 69.1759 47.32 68.11 47.32C67.0441 47.32 66.18 48.9363 66.18 50.93C66.18 52.9238 67.0441 54.54 68.11 54.54Z" fill="#FDB797"/>
<defs>
<linearGradient id="paint0_linear" x1="30774.9" y1="43693.2" x2="30774.9" y2="34572" gradientUnits="userSpaceOnUse">
<stop stop-color="#808080" stop-opacity="0.25"/>
<stop offset="0.54" stop-color="#808080" stop-opacity="0.12"/>
<stop offset="1" stop-color="#808080" stop-opacity="0.1"/>
</linearGradient>
</defs>
</svg>
