<svg width="96" height="96" viewBox="0 0 96 96" fill="none" xmlns="http://www.w3.org/2000/svg">
<g opacity="0.5">
<path opacity="0.5" d="M47.75 95.5C74.1216 95.5 95.5 74.1216 95.5 47.75C95.5 21.3784 74.1216 0 47.75 0C21.3784 0 0 21.3784 0 47.75C0 74.1216 21.3784 95.5 47.75 95.5Z" fill="url(#paint0_linear)"/>
</g>
<path d="M47.85 94.19C73.6693 94.19 94.6 73.2593 94.6 47.44C94.6 21.6207 73.6693 0.690002 47.85 0.690002C22.0307 0.690002 1.10001 21.6207 1.10001 47.44C1.10001 73.2593 22.0307 94.19 47.85 94.19Z" fill="#F5F5F5"/>
<path d="M73.56 52.05C73.56 67.6 62.39 75.25 47.88 75.25C33.37 75.25 21.03 67.6 21.03 52.05C21.03 36.5 32.79 23.9 47.29 23.9C61.79 23.9 73.56 36.5 73.56 52.05Z" fill="#333333"/>
<path d="M47.88 94.37C57.0189 94.3763 65.9574 91.6913 73.58 86.65C71.86 77.24 65.3 76.65 65.3 76.65H29.16C29.16 76.65 22.97 77.16 21.04 85.82C28.8884 91.3747 38.2648 94.3616 47.88 94.37Z" fill="#8EA1A5"/>
<path opacity="0.1" d="M40.11 65.25H54.57V76.82C54.57 77.7694 54.383 78.7096 54.0197 79.5868C53.6563 80.464 53.1237 81.261 52.4524 81.9324C51.781 82.6038 50.984 83.1363 50.1068 83.4997C49.2296 83.863 48.2895 84.05 47.34 84.05C45.4225 84.05 43.5835 83.2883 42.2276 81.9324C40.8717 80.5765 40.11 78.7375 40.11 76.82V65.25Z" fill="black"/>
<path d="M41.49 64.72H53.19C53.556 64.72 53.907 64.8654 54.1658 65.1242C54.4246 65.383 54.57 65.734 54.57 66.1V76.29C54.57 77.2395 54.383 78.1796 54.0197 79.0568C53.6563 79.934 53.1237 80.731 52.4524 81.4024C51.781 82.0737 50.984 82.6063 50.1068 82.9696C49.2296 83.333 48.2895 83.52 47.34 83.52C45.4225 83.52 43.5835 82.7583 42.2276 81.4024C40.8717 80.0465 40.11 78.2075 40.11 76.29V66.09C40.1126 65.7257 40.2592 65.3773 40.5177 65.1206C40.7762 64.864 41.1257 64.72 41.49 64.72Z" fill="#FDA57D"/>
<path opacity="0.1" d="M40.14 70.71C44.805 72.4384 49.935 72.4384 54.6 70.71V68.93H40.14V70.71Z" fill="black"/>
<path d="M47.39 71.68C58.8333 71.68 68.11 62.4033 68.11 50.96C68.11 39.5167 58.8333 30.24 47.39 30.24C35.9466 30.24 26.67 39.5167 26.67 50.96C26.67 62.4033 35.9466 71.68 47.39 71.68Z" fill="#FDA57D"/>
<path opacity="0.1" d="M23.51 52.31C23.51 52.31 36.41 50.75 46.19 38.23C46.19 38.23 59.09 52.44 68.09 50.87C68.09 50.87 73.3 45.4 68.09 39.92C62.88 34.44 58.84 27.54 51.93 28.45C45.02 29.36 36.55 29.75 32.93 33.01C29.31 36.27 23.51 52.31 23.51 52.31Z" fill="black"/>
<path d="M23.51 52.05C23.51 52.05 36.41 50.49 46.19 37.97C46.19 37.97 59.09 52.18 68.09 50.61C68.09 50.61 73.3 45.14 68.09 39.66C62.88 34.18 58.84 27.28 51.93 28.19C45.02 29.1 36.55 29.49 32.93 32.75C29.31 36.01 23.51 52.05 23.51 52.05Z" fill="#333333"/>
<path d="M26.66 54.55C27.7259 54.55 28.59 52.9337 28.59 50.94C28.59 48.9462 27.7259 47.33 26.66 47.33C25.5941 47.33 24.73 48.9462 24.73 50.94C24.73 52.9337 25.5941 54.55 26.66 54.55Z" fill="#FDA57D"/>
<path d="M68.11 54.55C69.1759 54.55 70.04 52.9337 70.04 50.94C70.04 48.9462 69.1759 47.33 68.11 47.33C67.0441 47.33 66.18 48.9462 66.18 50.94C66.18 52.9337 67.0441 54.55 68.11 54.55Z" fill="#FDA57D"/>
<defs>
<linearGradient id="paint0_linear" x1="41641.8" y1="54468.4" x2="41641.8" y2="45348.2" gradientUnits="userSpaceOnUse">
<stop stop-color="#808080" stop-opacity="0.25"/>
<stop offset="0.54" stop-color="#808080" stop-opacity="0.12"/>
<stop offset="1" stop-color="#808080" stop-opacity="0.1"/>
</linearGradient>
</defs>
</svg>
