<svg width="96" height="96" viewBox="0 0 96 96" fill="none" xmlns="http://www.w3.org/2000/svg">
<g opacity="0.5">
<path opacity="0.5" d="M47.75 95.5C74.1216 95.5 95.5 74.1216 95.5 47.75C95.5 21.3784 74.1216 0 47.75 0C21.3784 0 0 21.3784 0 47.75C0 74.1216 21.3784 95.5 47.75 95.5Z" fill="url(#paint0_linear)"/>
</g>
<path d="M47.84 94.2C73.6593 94.2 94.59 73.2693 94.59 47.45C94.59 21.6307 73.6593 0.700012 47.84 0.700012C22.0207 0.700012 1.09 21.6307 1.09 47.45C1.09 73.2693 22.0207 94.2 47.84 94.2Z" fill="#F5F5F5"/>
<path d="M47.88 94.38C57.0124 94.3933 65.9469 91.7189 73.57 86.69C71.85 77.28 65.29 76.69 65.29 76.69H29.15C29.15 76.69 22.96 77.2 21.03 85.86C28.8847 91.406 38.2646 94.3825 47.88 94.38Z" fill="#8EA1A5"/>
<path opacity="0.1" d="M40.11 65.26H54.57V76.83C54.57 78.7475 53.8083 80.5865 52.4524 81.9424C51.0965 83.2983 49.2575 84.06 47.34 84.06C45.4225 84.06 43.5835 83.2983 42.2276 81.9424C40.8717 80.5865 40.11 78.7475 40.11 76.83V65.26Z" fill="black"/>
<path d="M41.49 64.72H53.19C53.556 64.72 53.907 64.8654 54.1658 65.1242C54.4246 65.383 54.57 65.734 54.57 66.1V76.29C54.57 77.2395 54.383 78.1796 54.0196 79.0568C53.6563 79.934 53.1237 80.731 52.4524 81.4024C51.781 82.0737 50.984 82.6063 50.1068 82.9697C49.2296 83.333 48.2895 83.52 47.34 83.52C46.3905 83.52 45.4504 83.333 44.5732 82.9697C43.696 82.6063 42.899 82.0737 42.2276 81.4024C41.5563 80.731 41.0237 79.934 40.6604 79.0568C40.297 78.1796 40.11 77.2395 40.11 76.29V66.1C40.11 65.734 40.2554 65.383 40.5142 65.1242C40.773 64.8654 41.124 64.72 41.49 64.72Z" fill="#FDA57D"/>
<path opacity="0.1" d="M40.13 70.71C44.795 72.4384 49.925 72.4384 54.59 70.71V68.93H40.13V70.71Z" fill="black"/>
<path d="M47.39 71.68C58.8333 71.68 68.11 62.4033 68.11 50.96C68.11 39.5167 58.8333 30.24 47.39 30.24C35.9466 30.24 26.67 39.5167 26.67 50.96C26.67 62.4033 35.9466 71.68 47.39 71.68Z" fill="#FDA57D"/>
<defs>
<linearGradient id="paint0_linear" x1="52235.6" y1="33821.3" x2="52235.6" y2="24701.1" gradientUnits="userSpaceOnUse">
<stop stop-color="#808080" stop-opacity="0.25"/>
<stop offset="0.54" stop-color="#808080" stop-opacity="0.12"/>
<stop offset="1" stop-color="#808080" stop-opacity="0.1"/>
</linearGradient>
</defs>
</svg>
